<svg xmlns="http://www.w3.org/2000/svg" width="1240" height="1240"><path d="M1207 1.089c-1.925.525-4.401 1.095-5.502 1.268-2.676.419-9.578 3.622-11.715 5.436-.945.802-2.593 1.228-3.664.948-1.332-.348-2.102.086-2.439 1.375-.271 1.036-1.21 1.884-2.086 1.884-.877 0-1.594.45-1.594 1s-.675 1-1.5 1-1.5.464-1.5 1.031c0 .568-.682 1.293-1.515 1.613-2.588.993-7.396 5.992-8.463 8.799-.56 1.472-1.469 2.399-2.02 2.058-.551-.34-1.002-.116-1.002.499s-.449.84-.998.501c-1.243-.768-5.927 4.421-5.97 6.614-.018.888-.932 2.759-2.032 4.158-1.1 1.398-2 3.061-2 3.694s-.516.832-1.146.443c-.806-.499-.949.076-.481 1.941.366 1.457.316 2.649-.11 2.649s-1.372 1.462-2.103 3.25c-.73 1.787-1.705 4.15-2.165 5.25-.461 1.1-.854 2.675-.874 3.5-.019.825-.621 3.843-1.338 6.708-1.055 4.217-1.586 5.028-2.793 4.265-.819-.518-2.503-.949-3.74-.958-1.237-.008-2.25-.465-2.25-1.015 0-.603-4.183-1-10.548-1-8.458 0-11.359.392-14.636 1.975-2.249 1.086-4.507 1.716-5.019 1.399-.513-.316-1.189.408-1.503 1.61-.435 1.664-.781 1.867-1.451.851-.704-1.068-1.088-.981-1.923.436-.573.974-1.437 1.528-1.918 1.23-.482-.297-2.326 1.264-4.098 3.469-2.397 2.983-3.546 3.742-4.483 2.965-.915-.76-1.547-.552-2.31.76-.578.993-1.064 1.435-1.081.984-.036-.996-3.03 1.874-3.03 2.905 0 .4-1.106 2.177-2.457 3.948-1.351 1.772-2.188 3.489-1.86 3.817.328.328-.57 2.126-1.996 3.994-3.717 4.874-8.795 22.314-9.902 34.009-.817 8.632.004 28.957 1.407 34.797 1.442 6.006 8.909 6.41 11.089.6 1.041-2.774 7.114-10.667 8.241-10.71.562-.021 3.244-2.079 5.96-4.573 2.716-2.493 5.968-4.792 7.228-5.108 1.259-.316 2.29-.976 2.29-1.466 0-.491.9-.892 2-.892s2-.45 2-1 1.05-1 2.333-1c1.284 0 2.602-.268 2.929-.595.799-.799 15.715-.735 18.238.078 9.118 2.939 18.572 10.909 25.171 21.219 1.831 2.861 3.329 5.568 3.329 6.015 0 .447.828 2.381 1.841 4.298 3.363 6.368 4.192 12.614 4.285 32.313.085 17.843-.075 19.677-2.11 24.238-5.517 12.366-7.489 16.14-10.188 19.498-1.834 2.283-2.658 4.216-2.25 5.28.443 1.154.219 1.527-.717 1.194-.828-.295-2.437 1.291-4.11 4.049-1.512 2.493-3.148 4.286-3.636 3.984-.489-.302-1.203-2.226-1.587-4.275-.385-2.05-1.336-4.958-2.114-6.462-.778-1.504-1.414-3.373-1.414-4.153 0-1.522-8.687-10.681-10.132-10.681a.879.879 0 01-.868-.883c0-.486-.787-1.155-1.75-1.486-.963-.332-3.325-1.597-5.25-2.812-3.042-1.92-4.866-2.205-13.944-2.182-7.057.017-10.57.405-10.833 1.194-.214.643-1.011 1.169-1.771 1.169-2.667 0-10.372 3.065-14.502 5.769-2.294 1.502-4.531 2.731-4.97 2.731-1.266 0-4.98 5.152-4.98 6.908 0 .875.338 1.595.75 1.599.412.004 1.874 1.691 3.249 3.75 1.374 2.059 3.115 4.391 3.868 5.183.753.791 1.81 2.704 2.349 4.25.539 1.545 1.567 2.81 2.285 2.81 1.96 0 8.114 9.938 8.979 14.5 1.326 6.998 1.264 19.813-.113 23.137-.756 1.825-3.194 4.334-5.831 6-2.493 1.575-4.533 3.2-4.534 3.613-.001.413-.592.75-1.313.75-.722 0-2.303.923-3.513 2.051-1.211 1.128-2.646 1.777-3.189 1.441-.543-.336-.987.144-.987 1.066 0 1.244-.638 1.553-2.478 1.201-1.77-.338-2.64.037-3.044 1.311-.494 1.557-4.046 4.305-9.486 7.339-.897.5-2.616 2.413-3.821 4.25-1.204 1.838-2.86 3.341-3.68 3.341-.82 0-1.491.886-1.491 1.969 0 1.377-.471 1.787-1.569 1.366-1.592-.611-9.43 6.972-9.432 9.125-.001.572-1.126 2.347-2.5 3.946-1.375 1.598-2.499 3.285-2.499 3.75 0 1.248-3.266.965-5.044-.438-1.377-1.086-3.396-7.333-4.33-13.402-.185-1.201-1.527-3.598-2.981-5.326-1.455-1.729-2.645-3.543-2.645-4.032 0-.488-3.087-4.006-6.861-7.817l-6.861-6.93-10.689-.728c-9.595-.654-10.822-.547-11.989 1.049-.973 1.331-2.084 1.621-4.415 1.155-3.338-.668-9.355 1.894-13.977 5.949-5.062 4.442-6.223 5.364-6.753 5.364-.797 0-4.775 4.302-6.061 6.554-.608 1.065-1.733 1.982-2.5 2.039-.767.056-2.106.171-2.976.255-1.898.182-3.951 6.246-3.183 9.402.762 3.133 3.229 5.75 5.42 5.75 1.015 0 1.845.457 1.845 1.016 0 .559 1.237.948 2.75.866 4.871-.266 10.638 3.372 17.6 11.102 7.496 8.323 9.721 12.027 8.964 14.923-.281 1.073-.025 4.215.569 6.981 1.287 6.002.04 17.934-2.482 23.746-2.6 5.991-3.197 7.645-3.869 10.724-.344 1.572-2.245 6.226-4.225 10.343-1.98 4.116-3.72 9.13-3.865 11.141-.273 3.774-2.784 10.94-6.887 19.658-2.122 4.507-3.834 9.168-3.857 10.5-.005.275-.614 1.948-1.353 3.718-.74 1.77-1.345 4.281-1.345 5.58 0 1.3-1.123 4.577-2.496 7.283-1.373 2.705-2.498 5.525-2.5 6.265-.002.74-.652 2.54-1.445 4s-2.177 5.129-3.078 8.154c-.9 3.025-2.772 7.671-4.161 10.324-1.655 3.162-2.373 5.864-2.082 7.843.284 1.938-.037 3.202-.898 3.533-.737.283-1.34 1.292-1.34 2.242 0 2.053-3.625 13.816-5.022 16.294-.538.955-.981 2.53-.984 3.5-.004.97-.644 2.987-1.424 4.482-.78 1.495-1.73 5.213-2.111 8.263-.381 3.05-1.112 5.805-1.625 6.122-.513.317-.88 3.123-.815 6.236.065 3.114-.395 8.136-1.02 11.161-.626 3.025-1.444 7.75-1.818 10.5-.672 4.936-2.389 6.435-2.991 2.612-.171-1.082-.958-2.505-1.75-3.162s-1.44-1.736-1.44-2.398c0-.662-1.125-2.26-2.5-3.552-1.375-1.292-2.506-3.058-2.514-3.924-.024-2.704-12.092-14.37-21.055-20.355-4.713-3.146-9.101-5.721-9.75-5.721-.65 0-1.181-.45-1.181-1s-1.125-1-2.5-1-2.5-.45-2.5-1-1.323-1-2.941-1c-1.618 0-3.198-.416-3.512-.923-.609-.986-19.439-.622-25.923.5-2.595.449-4.038 1.291-4.367 2.547-.27 1.032-.888 1.876-1.374 1.876-1.321 0-1.064 5.433.385 8.136.698 1.3 2.754 3.939 4.57 5.864 8.784 9.311 22.829 29.716 25.812 37.5.632 1.65 2.595 6.375 4.363 10.5 3.533 8.245 5.152 13.461 5.109 16.454-.016 1.075.471 2.555 1.081 3.291 1.617 1.948 2.233 34.057.83 43.255-.63 4.125-1.29 8.625-1.469 10-.178 1.375-.557 3.175-.843 4-.285.825-1.225 4.552-2.088 8.282-1.466 6.336-3.34 11.509-5.867 16.194-.586 1.087-1.184 4.176-1.329 6.863-.145 2.688-.752 5.376-1.35 5.974-.598.598-1.087 1.46-1.087 1.915 0 .8-5.703 12.651-9.202 19.124-.936 1.731-1.724 4.36-1.75 5.841-.049 2.768-3.645 9.807-5.01 9.807-.421 0-1.967 2.588-3.436 5.75-2.703 5.817-3.225 6.778-7.322 13.479-1.254 2.05-2.28 4.399-2.28 5.219 0 1.782-4.074 9.911-5.205 10.385-.437.184-.795.923-.795 1.643 0 .721-.641 1.556-1.424 1.857-2.061.79-4.855 7.213-4.131 9.494.406 1.28-.248 2.974-1.914 4.953-1.392 1.655-2.531 3.441-2.531 3.968 0 .528-1.125 2.174-2.5 3.657-1.375 1.484-2.5 3.331-2.5 4.105 0 2.458-3.445 8.44-4.875 8.465-.992.018-1.208.861-.775 3.025.33 1.65.211 3-.265 3s-1.852 2.138-3.059 4.75c-2.053 4.444-4.669 8.84-9.271 15.579-1.284 1.881-1.721 3.669-1.303 5.334.345 1.378.234 2.261-.247 1.964-.482-.298-1.661 1.127-2.621 3.166-.961 2.039-3.028 5.732-4.594 8.207-1.567 2.475-3.146 5.704-3.509 7.176-.364 1.472-1.513 3.448-2.555 4.391-1.284 1.162-1.704 2.47-1.304 4.064.403 1.605.096 2.54-.968 2.948-.856.329-2.065 2.137-2.686 4.019-.621 1.881-1.672 3.979-2.336 4.661-.664.683-2.045 3.491-3.069 6.241-1.023 2.75-2.697 6.2-3.72 7.666-1.023 1.466-2.137 4.054-2.476 5.75-.339 1.696-.961 3.084-1.381 3.084-.42 0-1.065 1.605-1.433 3.567-.368 1.962-1.537 5-2.599 6.75-2.418 3.99-4.116 7.737-4.387 9.683-.115.825-.485 2.175-.823 3-1.102 2.691-2.876 11.343-3.897 19-.55 4.125-1.415 7.927-1.923 8.45-.508.522-.924 1.958-.924 3.191 0 1.233-.391 2.482-.868 2.778-.478.295-1.181 3.297-1.563 6.672-.382 3.375-1.098 6.873-1.591 7.773-.493.9-1.633 8.161-2.534 16.136-.9 7.975-1.813 15.625-2.028 17-1.117 7.122-1.469 34.661-.55 43 1.594 14.457 4.094 30.316 5.054 32.06.473.857 1.41 4.232 2.084 7.5.673 3.267 1.835 7.13 2.581 8.585.747 1.455 1.79 4.38 2.319 6.5 1.782 7.149 4.585 13.847 6.346 15.162.962.718 1.75 1.711 1.75 2.206 0 .494 1.256 3.056 2.791 5.693 1.535 2.637 2.627 5.581 2.427 6.544-.201.963.088 1.75.641 1.75.554 0 1.292.9 1.641 2s1.167 2.004 1.817 2.008c1.298.009 9.377 9.905 11.566 14.166.755 1.47 2.441 2.941 3.745 3.269 1.305.327 2.372 1.037 2.372 1.576 0 .54.47.981 1.043.981.574 0 3.612 2.521 6.75 5.601 6.108 5.995 13.329 11.399 15.233 11.399 1.146 0 6.996 2.973 7.974 4.052.275.304 2.168 1.328 4.208 2.277 2.039.948 3.978 2.162 4.309 2.698.33.535 1.673.973 2.983.973s2.671.468 3.025 1.041c.354.572 1.505.767 2.559.432 1.071-.34 1.916-.137 1.916.46 0 .587.81 1.067 1.8 1.067s2.257.457 2.817 1.017c.559.559 5.486 1.014 10.95 1.011 12.988-.008 13.583-.045 15.933-.987 9.302-3.729 11.338-4.663 13.75-6.305 1.513-1.03 2.75-2.292 2.75-2.804 0-1.131 3.688-4.932 4.786-4.932 1.555 0 8.214-11.338 8.214-13.986 0-1.489.68-4.071 1.512-5.738 3.648-7.311 3.589-32.439-.089-37.689-.782-1.118-1.423-3.045-1.423-4.283 0-1.238-1.025-4.074-2.277-6.304-2.403-4.279-13.251-16-14.808-16-.503 0-.915-.45-.915-1s-.562-1.015-1.25-1.034c-.687-.019-3.042-.881-5.231-1.916-2.19-1.035-4.327-1.668-4.75-1.407-.423.261-.769-.002-.769-.584 0-1.559-12.132-1.275-14.251.334-.963.731-2.876 1.114-4.25.852-1.459-.279-2.499-.013-2.499.638 0 .615-.675 1.117-1.5 1.117s-1.5.702-1.5 1.559-.44 1.287-.979.954c-.538-.333-3.144 1.666-5.791 4.441-2.647 2.775-5.244 5.046-5.771 5.046-.528 0-2.224 1.585-3.769 3.522-1.985 2.488-2.615 4.14-2.143 5.625.367 1.156.25 2.384-.26 2.728-.51.344-1.626 2.406-2.479 4.582-.853 2.177-1.95 4.09-2.437 4.253-.487.162-2.05-.785-3.474-2.104-1.423-1.32-3.444-2.563-4.492-2.763-1.048-.2-2.041-1.309-2.206-2.465-.166-1.155-2.959-5.235-6.207-9.065-4.106-4.842-6.212-8.311-6.911-11.388-1.082-4.755-4.427-11.903-6.037-12.898-.864-.534-2.952-8.195-4.776-17.527-1.2-6.135-1.388-35.067-.268-41 1.443-7.637 3.031-14.576 3.777-16.5.32-.825.707-2.175.86-3 1.091-5.884 2.841-11.8 4.026-13.608.77-1.176 1.806-4.632 2.302-7.68.907-5.573 8.359-21.881 13.365-29.247 1.469-2.161 2.67-4.279 2.67-4.706 0-1.663 6.189-9.203 9.276-11.3 1.789-1.216 3.881-3.385 4.649-4.819.767-1.434 2.223-2.87 3.235-3.191 1.012-.321 1.84-1.003 1.84-1.516 0-.513.638-.933 1.417-.933s1.566-.337 1.75-.75c.761-1.713 14.529-6.888 15.566-5.85.321.32 1.125.133 1.786-.416.662-.549 5.654-1.161 11.092-1.358 9.602-.349 15.624.286 23.889 2.521 4.001 1.081 5.532 1.61 10.825 3.741 1.554.626 3.241.88 3.75.566.509-.315.925-.095.925.487s.9 1.059 2 1.059 2 .45 2 1 .914 1 2.031 1c1.118 0 2.291.675 2.607 1.5.317.825 1.428 1.5 2.469 1.5s1.893.353 1.893.784c0 1.123 5.494 4.216 7.488 4.216 1.976 0 15.701 11.114 17.935 14.523.847 1.292 2.773 2.941 4.279 3.664 1.507.722 3.203 2.219 3.769 3.327.566 1.108 2.042 3.637 3.28 5.62 1.239 1.984 2.541 5.715 2.894 8.291.726 5.295 1.79 5.01-9.645 2.582-3.278-.697-10.348-.988-17.5-.721-13.585.506-18.226 1.155-23.242 3.251-1.926.805-4.347 1.463-5.38 1.463-1.033 0-1.878.45-1.878 1s-.845 1-1.878 1c-4.697 0-9.263 3.064-11.245 7.545-1.084 2.45-2.372 4.455-2.863 4.455-.49 0-1.201 2.137-1.579 4.75-.378 2.612-1.104 5.274-1.612 5.914-.509.64-1.193 5.892-1.52 11.67-.546 9.638-.365 11.233 2.19 19.335 3.315 10.511 4.534 13.331 5.762 13.331.504 0 3.241 2.363 6.081 5.25 5.397 5.487 8.94 8.2 10.197 7.81.409-.127 1.051.266 1.426.874 1.095 1.772 33.437 1.852 34.529.085.257-.416 3.137-1.058 6.4-1.427 3.263-.369 6.474-1.323 7.136-2.121.661-.797 1.611-1.197 2.11-.888.499.308 2.282-.597 3.963-2.011 1.681-1.415 3.43-2.572 3.886-2.572.859 0 .428 3.013-.928 6.5-1.668 4.289-3.055 9.221-3.055 10.865 0 .947-1.687 3.551-3.75 5.787-2.062 2.236-3.618 4.692-3.456 5.457.165.782-.495 1.391-1.51 1.391-.991 0-2.365.9-3.052 2-.687 1.1-1.947 2-2.799 2-.853 0-1.255.478-.894 1.063.791 1.281-2.442 5.115-3.673 4.354-.476-.294-.866.181-.866 1.055 0 .875-.788 1.881-1.75 2.236-.962.356-1.975.971-2.25 1.369-.275.398-1.397.881-2.494 1.073-5.849 1.027-4.973 11.751 1.366 16.718 4.214 3.302 8.128 5.49 8.128 4.545 0-.362.714-.065 1.588.66 2.137 1.773 18.477 2.23 24.912.696 7.174-1.71 13.623-5.687 20-12.333 3.491-3.638 4.318-4.052 6.5-3.248 1.375.507 4.3 2.875 6.5 5.264 8.016 8.701 28.435 14.283 38.185 10.438 1.548-.611 4.052-1.091 5.565-1.067 1.513.024 2.75-.328 2.75-.781 0-.454 1.106-1.103 2.458-1.442 1.351-.339 3.706-1.774 5.233-3.189 1.526-1.415 3.37-2.905 4.096-3.312.726-.406 1.581-3.267 1.9-6.357.623-6.036-.256-7.836-4.484-9.177-1.211-.385-2.203-1.119-2.203-1.632 0-.513-.491-.933-1.092-.933-.6 0-3.709-2.7-6.908-6-3.199-3.3-6.28-6-6.847-6-1.447 0-8.165-11.148-10.447-17.335-3.054-8.284-2.903-13.017.294-9.165.685.825 1.865 1.5 2.622 1.5.758 0 1.378.483 1.378 1.073 0 .591.787.912 1.75.714.963-.198 2.276.332 2.919 1.177.976 1.282 4.895 1.593 23.75 1.882 15.524.239 22.581.014 22.581-.718 0-.586.563-.856 1.25-.601.688.256 4.175-2.217 7.75-5.494 3.575-3.278 6.953-5.976 7.506-5.996.553-.02 1.617-1.499 2.364-3.287.748-1.787 2.182-5.05 3.188-7.25 3.305-7.227 4.253-13.218 3.66-23.145-.31-5.206-1.099-10.109-1.753-10.897-.654-.788-.933-2.099-.621-2.913.313-.815.138-1.747-.388-2.072-.526-.325-.956-1.348-.956-2.273 0-4.096-9.704-14.978-14-15.7-.275-.047-2.695-1.078-5.377-2.292-2.683-1.214-5.945-2.208-7.25-2.208-1.305 0-2.373-.45-2.373-1s-1.485-1-3.3-1c-1.815 0-3.801-.501-4.413-1.113-.651-.651-2.706-.88-4.95-.55-14.459 2.123-17.554 2.68-18.628 3.354-.665.418-1.891.647-2.724.511-.833-.136-3.706.411-6.384 1.217l-4.869 1.466.551-5.335c.708-6.863 5.128-15.863 9.383-19.109 1.834-1.399 3.334-3.141 3.334-3.872 0-.731 3.037-3.629 6.75-6.44 3.713-2.81 7.294-5.564 7.958-6.119.664-.556 2.063-1.01 3.109-1.01 1.046 0 4.552-1.42 7.792-3.155 3.24-1.736 6.791-3.315 7.891-3.51 1.1-.195 3.575-.606 5.5-.913 1.925-.307 4.426-1.007 5.557-1.556 2.623-1.272 22.474-.542 28.443 1.046 2.475.658 5.279 1.201 6.23 1.206.952.005 1.991.431 2.309.946.319.515 1.452.936 2.52.936s1.941.344 1.941.764c0 1.149 7.658 4.236 10.507 4.236 1.371 0 2.493.45 2.493 1s.45 1 1 1 1.848.788 2.884 1.75c1.035.963 4.185 3.744 7 6.181 2.814 2.437 5.116 5.008 5.116 5.715 0 .706.876 1.752 1.947 2.325 2.664 1.426 10.246 11.541 12.764 17.029 1.136 2.475 3.281 7.2 4.767 10.5a851.03 851.03 0 004.612 10.066c1.05 2.236 1.91 5.022 1.91 6.191 0 1.169.468 2.414 1.041 2.768.572.354.76 1.527.417 2.607-.343 1.08-.048 2.657.654 3.503 1.771 2.134 2.46 33.563.939 42.865-.629 3.85-1.282 7.9-1.451 9-.477 3.111-2.587 10.784-3.575 13-.49 1.1-2.598 5.6-4.684 10-2.086 4.4-3.675 9.144-3.531 10.542.172 1.664-.614 3.364-2.274 4.924-1.395 1.31-2.536 2.965-2.536 3.677 0 .74-.643 1.048-1.5.719-.917-.352-1.5-.001-1.5.904 0 2.068-7.043 11.403-9.67 12.818-1.291.695-1.943 1.761-1.609 2.63 1.142 2.976-4.096.907-5.604-2.214a418.203 418.203 0 00-2.882-5.821c-.787-1.551-1.21-3.667-.939-4.703.358-1.368-2.144-4.599-9.152-11.823-10.169-10.482-13.138-12.177-20.394-11.637-2.062.153-3.75-.125-3.75-.619 0-1.232-7.733-1.139-8.5.103-.34.55-2.991 1-5.892 1-2.901 0-5.612.337-6.025.75-.746.746-1.252.887-4.052 1.125-.874.074-1.235.732-.893 1.625.354.922-.002 1.5-.924 1.5-.825 0-1.761.679-2.079 1.509-.319.83-.933 1.393-1.366 1.25-.432-.142-3.102 2.106-5.933 4.995-3.407 3.479-4.989 5.858-4.68 7.04.264 1.008-.43 2.597-1.594 3.65-1.134 1.026-2.062 2.42-2.062 3.097s-.672 2.519-1.494 4.095c-.821 1.575-1.496 3.625-1.5 4.555-.003.93-.442 1.96-.974 2.289-1.167.721-1.393 3.723-1.334 17.714.024 5.881.396 11.506.824 12.5.429.993.882 2.256 1.008 2.806.125.55 1.632 3.969 3.349 7.597 1.716 3.628 3.121 7.304 3.121 8.169 0 2.367 3.32 7.72 4.792 7.728 1.934.009 10.053 6.248 10.741 8.254.33.961 1.695 2.022 3.034 2.358 1.338.336 2.433 1.012 2.433 1.502 0 .491.675.892 1.5.892s1.5.34 1.5.756c0 1.31 6.003 3.476 8.109 2.926 1.109-.29 3.451.043 5.204.74 4.241 1.687 19.475 1.969 28.187.522 3.85-.639 8.35-1.111 10-1.049 1.65.062 3.9-.283 5-.767 5.614-2.468 7.124-3.194 8.5-4.087.825-.535 3.724-1.939 6.443-3.12 2.719-1.181 6.423-3.671 8.232-5.534 1.809-1.863 4.18-3.387 5.268-3.387 1.842 0 18.057-15.189 18.057-16.913 0-.412 1.141-1.36 2.536-2.106 1.394-.746 3.082-2.324 3.75-3.506 2.775-4.911 8.667-13.091 10.567-14.669 1.122-.932 2.508-3.407 3.08-5.5.572-2.093 3.296-7.816 6.054-12.716 2.757-4.901 5.016-9.176 5.019-9.5.004-.325.636-1.797 1.406-3.273.77-1.475 1.706-4.175 2.08-6 1.012-4.933 5.359-18.672 6.693-21.153 1.359-2.525 4.319-15.533 6.297-27.664 2.784-17.073 1.435-72.472-1.896-77.861-.485-.784-3.048-11.268-3.946-16.139-.152-.825-.808-2.767-1.458-4.315-.65-1.548-1.182-3.242-1.182-3.764 0-.521-.423-1.73-.94-2.685-.517-.955-2.348-6.236-4.069-11.736-1.72-5.5-3.997-11.908-5.059-14.239-1.063-2.332-1.932-4.694-1.932-5.25s-.412-1.011-.915-1.011c-1.339 0-6.073-8.867-5.513-10.326.262-.685-.321-2.133-1.297-3.219-3.739-4.162-8.891-11.059-10.051-13.455-.665-1.375-1.775-3.314-2.467-4.309-1.042-1.498-.973-2.019.399-3.041.91-.678 3.352-4.589 5.426-8.691 2.073-4.103 4.532-8.359 5.464-9.459.932-1.1 1.997-4.003 2.368-6.45.37-2.448 1.057-4.923 1.526-5.5.469-.578 1.324-2.625 1.9-4.55.577-1.925 2.465-7.325 4.196-12 3.78-10.209 5.058-14.51 5.496-18.5l1.478-13.5c.632-5.775 1.559-11.4 2.061-12.5 1.132-2.485 1.184-4.018 1.215-36 .031-32.294-.042-34.499-1.182-35.882-.508-.615-1.462-6.518-2.122-13.118-.66-6.6-1.575-12.9-2.034-14-.459-1.1-1.136-4.025-1.504-6.5-.369-2.475-1.072-4.999-1.562-5.609-.491-.61-1.533-3.085-2.315-5.5-2.891-8.927-4.761-13.435-6.266-15.104-.849-.942-1.295-2.361-.99-3.154.628-1.638-4.483-12.701-6.73-14.566-.813-.675-1.987-2.766-2.607-4.647-.621-1.881-1.472-3.42-1.891-3.42-.42 0-1.376-1.913-2.125-4.25-.75-2.337-2.284-5.193-3.41-6.345-1.127-1.153-3.398-4.459-5.048-7.347-1.65-2.889-3.926-6.446-5.059-7.905-1.132-1.459-3.056-4.386-4.276-6.505-2.305-4.003-10.105-13.899-11.415-14.481-.412-.184-.75-1.019-.75-1.856 0-.838-1.288-3.163-2.863-5.167s-3.554-4.995-4.398-6.646c-.844-1.652-2.528-3.902-3.743-5-2.785-2.519-5.867-8.578-5.25-10.319.258-.727-.449-2.302-1.571-3.5-2.43-2.597-7.754-13.094-8.742-17.238-.386-1.617-1.305-3.639-2.043-4.492-.737-.854-1.308-2.879-1.268-4.5.084-3.416-1.971-12.472-3.171-13.971-1.469-1.836-3.199-22.788-2.51-30.394.639-7.044 4.565-20.243 7.868-26.452 2.212-4.157 13.956-18.586 14.735-18.105.364.225.901 8.033 1.194 17.352.294 9.318.911 17.545 1.371 18.282.461.736.85 1.789.865 2.339.014.55 1.913 4.858 4.219 9.573 2.976 6.085 5.419 9.569 8.415 12 2.321 1.885 4.79 3.99 5.485 4.677.695.687 1.598 1.25 2.007 1.25.408 0 1.453.64 2.321 1.421.869.782 2.254 1.569 3.079 1.75.825.181 1.792.732 2.149 1.224.936 1.292 17.819 1.037 19.146-.29.608-.608 1.729-1.105 2.492-1.105.763 0 4.828-2.948 9.034-6.551 6.008-5.147 8.271-7.88 10.554-12.75 6.588-14.051 6.761-14.704 7.312-27.699.457-10.757.107-16.239-2.075-32.5-.148-1.1-.555-2.675-.905-3.5-.35-.825-1.281-3.3-2.069-5.5-4.478-12.496-5.679-14.468-13.505-22.186-10.852-10.702-11.779-11.314-17.136-11.314-2.529 0-5.034-.437-5.569-.972-.535-.535-6.653-1.026-13.597-1.091-10.35-.097-13.093.188-15.226 1.586-1.957 1.282-3.695 1.541-7.015 1.043-2.713-.407-4.662-.258-5.06.386-.357.576-1.489 1.048-2.518 1.048-1.028 0-2.64.77-3.581 1.712-.942.942-2.323 1.802-3.069 1.911-.746.11-2.924 1.814-4.841 3.788-1.917 1.974-4.169 3.589-5.003 3.589-.835 0-1.518.45-1.518 1s-.548 1-1.218 1c-.67 0-2.133 1.044-3.25 2.319-1.118 1.276-2.848 2.623-3.845 2.993-.998.371-1.534 1.127-1.191 1.681.342.554-.04 1.007-.848 1.007-1.749 0-5.38 4.155-8.129 9.302-1.089 2.04-2.814 3.974-3.834 4.298-1.383.439-1.701 1.2-1.251 2.994.332 1.323.251 2.406-.18 2.406-.432 0-1.616 2.363-2.631 5.25-1.016 2.887-2.317 5.831-2.892 6.542-2.033 2.512-5.683 10.477-5.177 11.296.283.457.079 1.636-.452 2.621-1.639 3.039-3.309 10.444-4.126 18.291-.429 4.125-1.382 11.325-2.117 16-1.92 12.212-1.732 36.276.381 48.861.957 5.699 1.502 10.748 1.209 11.221-.292.473.15 2.176.983 3.786l1.514 2.927-4.473 1.321c-2.46.726-4.473 1.672-4.473 2.102 0 .43-.792.782-1.759.782-.968 0-2.333.917-3.033 2.039-.7 1.121-1.64 1.812-2.088 1.535-.448-.276-2.092.831-3.654 2.462-1.562 1.63-3.431 2.964-4.153 2.964-.722 0-1.313.445-1.313.988 0 .544-.994.881-2.209.75-1.522-.164-2.33.384-2.597 1.762-.214 1.1-.86 2.45-1.438 3-.718.684-.808.575-.283-.347.421-.741-1.267.609-3.752 3-2.484 2.391-5.513 6.269-6.731 8.619-1.218 2.35-2.987 4.825-3.93 5.5-.943.675-2.938 3.914-4.432 7.197-1.495 3.282-3.08 6.207-3.523 6.5-.443.292-2.042 2.504-3.553 4.916-2.001 3.194-2.592 5.164-2.175 7.25.317 1.586.138 2.865-.402 2.865-.536 0-.975.873-.975 1.941s-.396 2.186-.881 2.485c-.484.3-1.114 1.564-1.4 2.809-.285 1.246-1.424 4.624-2.53 7.506-1.106 2.883-2.328 7.158-2.716 9.5-.388 2.343-1.055 4.934-1.481 5.759-.798 1.541-3.212 27.653-3.154 34.107.069 7.656 2.342 32.39 3.021 32.878.393.283 1.275 3.871 1.96 7.972.685 4.101 1.829 8.151 2.542 9 1.607 1.913 5.639 12.603 5.639 14.951 0 .952 1.841 4.175 4.091 7.161 2.25 2.987 4.45 6.331 4.889 7.431 1.268 3.176 10.694 14.512 16.088 19.346 2.713 2.431 4.932 5.035 4.932 5.787 0 .752.338 1.283.75 1.181 1.301-.322 8.51 3.147 11.879 5.717 1.781 1.358 3.943 2.469 4.804 2.469.862 0 1.567.394 1.567.875 0 .782 4.578 2.305 7.679 2.555.649.053 1.512.427 1.917.833 1.285 1.285 9.062.796 12.04-.757 1.575-.821 3.567-1.496 4.425-1.5.859-.003 2.547-.924 3.75-2.045 1.204-1.121 2.189-1.78 2.189-1.463 0 1.145 11.93-7.557 15.399-11.233 1.954-2.071 4.239-5.227 5.077-7.015.838-1.787 2.254-4.796 3.146-6.685 1.779-3.765 3.142-9.444 4.055-16.894.622-5.07-3.174-25.585-4.957-26.791-.504-.341-.727-1.466-.495-2.5.232-1.034-.21-3.166-.983-4.738-3.5-7.12-19.313-19.389-23.342-18.11-1.057.335-1.9.129-1.9-.465 0-.666-2.965-1.067-7.893-1.067-6.115 0-8.023.34-8.472 1.509-.319.83-.929 1.452-1.357 1.382-1.797-.295-3.022.222-5.089 2.148-1.204 1.121-2.189 1.72-2.189 1.33 0-.39-2.299 1.614-5.108 4.453-2.81 2.839-5.51 4.914-6 4.611-.491-.303-.892.137-.892.977 0 1.832-3.928 9.593-4.851 9.584-1.23-.012-4.558-6.506-5.891-11.494-2.542-9.515-2.705-11.06-2.59-24.5.123-14.194.411-16.994 2.695-26.15 1.428-5.723 8.481-19.831 9.921-19.843.916-.008 5.563-4.76 7.687-7.86.809-1.181 2.024-2.147 2.7-2.147.676 0 1.589-.567 2.029-1.26.44-.693 2.488-2.145 4.55-3.227 2.063-1.082 3.75-2.253 3.75-2.602 0-.348 2.588-.91 5.75-1.247 3.162-.338 6.425-.696 7.25-.797.825-.1 5.362-.111 10.082-.025l8.582.158 4.296 5.75c2.363 3.163 4.907 7.182 5.654 8.933.746 1.751 2.151 3.783 3.121 4.515.971.733 2.317 2.226 2.991 3.317.675 1.092 4.05 6.376 7.5 11.744 3.451 5.367 7.434 11.996 8.852 14.731 1.418 2.735 3.295 5.768 4.172 6.741.877.973 1.88 3.119 2.23 4.769 1.295 6.105 3.733 13.513 4.629 14.067.508.314.653 1.01.321 1.546-.331.536-.164 1.517.371 2.181.535.663 1.301 3.231 1.702 5.706.401 2.475 1.154 5.308 1.673 6.296 1.945 3.702 2.815 13.784 2.821 32.704.008 22.407-1.604 35.496-5.276 42.858-.891 1.785-1.369 3.896-1.063 4.693.306.797.097 1.449-.463 1.449-.561 0-1.335 1.913-1.72 4.25-.386 2.337-1.039 4.7-1.453 5.25-.414.55-.992 2.891-1.286 5.203-.293 2.312-1.479 5.531-2.635 7.155-1.155 1.623-2.101 3.653-2.101 4.511 0 .858-.9 2.042-2 2.631s-2 1.587-2 2.219c0 1.539-4.134 10.126-5.234 10.873-.479.325-.739 1-.577 1.5.584 1.797-2.829 5.311-5 5.147-1.204-.09-2.189-.519-2.189-.952 0-.433-1.098-.787-2.441-.787-1.343 0-2.738-.481-3.101-1.068-.363-.587-2.977-.983-5.809-.879-2.832.104-5.824-.069-6.649-.384-4.203-1.609-9.995-2.071-25.5-2.038-16.949.036-25.566 1.035-27.749 3.218-1.355 1.355-5.663 1.493-7.636.243-.848-.537-2.641-.353-4.623.476-1.781.744-3.51 1.081-3.841.749-.332-.332-.893.15-1.246 1.07-.42 1.093-1.293 1.466-2.523 1.075-1.296-.411-1.882-.109-1.882.971 0 .9-.851 1.567-2 1.567-1.1 0-2 .487-2 1.083s-.562.88-1.25.631c-.687-.249-1.925.128-2.75.839-.825.71-2.675 1.584-4.111 1.943-2.506.625-2.639.443-3.296-4.51-.377-2.838-1.066-5.909-1.532-6.823-.466-.915-1.404-4.138-2.083-7.163-.68-3.025-1.569-5.95-1.977-6.5-.407-.55-1.28-2.8-1.94-5-.66-2.2-1.595-4.9-2.077-6-.482-1.1-1.876-4.475-3.098-7.5-1.222-3.025-2.767-6.175-3.433-7-.667-.825-1.999-3.053-2.962-4.951-.963-1.898-2.37-4.071-3.127-4.828-.758-.757-1.847-2.254-2.421-3.327-.574-1.073-1.417-1.719-1.874-1.437-.457.283-1.897-1.051-3.2-2.965-1.303-1.913-2.726-3.481-3.163-3.485-.436-.004-2.011-1.141-3.5-2.527-1.488-1.386-3.943-3.071-5.456-3.744-1.513-.673-2.75-1.571-2.75-1.995 0-1.277-6.342-4.733-8.693-4.737-1.206-.002-3.781-.941-5.723-2.087-2.94-1.735-4.664-2.001-10.307-1.593-10.345.749-13.296 1.623-14.516 4.301-1.1 2.414-3.761 3.3-3.761 1.253 0-.826-.355-.828-1.342-.009-.738.612-1.638.818-2 .456-.362-.362-.658-.188-.658.387s-1.318 1.591-2.928 2.258c-1.611.667-3.172 1.847-3.469 2.622-.297.774-1.178 1.408-1.957 1.408-3.558 0-7.022 10.613-4.222 12.937.867.719 1.576 1.928 1.576 2.685 0 .758.675 1.378 1.5 1.378s1.5.45 1.5 1 .566 1 1.257 1 2.702 1.575 4.469 3.5c1.767 1.925 3.394 3.5 3.617 3.5.222 0 2.199 1.688 4.392 3.75 5.636 5.301 12.265 14.538 12.265 17.091 0 1.252.63 2.159 1.5 2.159.825 0 1.504.563 1.51 1.25.005.688 1.148 3.695 2.539 6.684 2.831 6.082 4.468 14.593 4.531 23.566.048 6.899-1.367 19.121-2.326 20.079-.869.869-6.882-2.933-8.725-5.516-.809-1.135-2.046-2.063-2.75-2.063-.703 0-1.279-.42-1.279-.934 0-1.262-7.327-6.383-13.661-9.548-2.839-1.419-6.439-3.874-8-5.457-1.562-1.583-6.474-5.102-10.917-7.819-7.044-4.308-8.959-5.011-14.967-5.494-3.79-.304-7.055-1.047-7.256-1.65-.201-.604-2.503-1.098-5.116-1.098-2.612 0-5.087-.338-5.499-.75-.914-.914-26.584-1.155-26.584-.25 0 .353-2.349.75-5.219.881-2.871.131-5.725.657-6.342 1.17-2.699 2.239-1.937-.657 1.674-6.367 2.151-3.401 4.814-8.209 5.916-10.684 2.911-6.533 6.019-12.21 7.938-14.5.922-1.1 3.167-5.15 4.989-9 1.822-3.85 3.787-7.9 4.366-9 5.835-11.072 11.656-23.284 11.666-24.472.01-1.278 6.386-17.335 10.593-26.679.781-1.733 1.419-3.591 1.419-4.128 0-.537.618-1.489 1.373-2.115.755-.627 1.688-3.932 2.075-7.345.386-3.413 1.3-7.343 2.031-8.733.731-1.391 2.773-7.253 4.537-13.028 1.764-5.775 3.445-11.175 3.735-12 .29-.825.662-2.175.827-3 1.226-6.136 2.804-11.687 3.603-12.681.522-.65.88-3.8.795-7-.193-7.271 1.167-15.533 2.638-16.024.611-.203 1.704 1.109 2.428 2.917.723 1.809 2.585 4.928 4.136 6.932 1.552 2.004 2.822 4.403 2.822 5.332 0 1.875 6.158 9.929 9.928 12.982 1.335 1.082 4.526 4.121 7.091 6.754 2.565 2.634 5.185 4.788 5.822 4.788.638 0 1.159.414 1.159.921 0 .506 1.35 1.217 3 1.579 1.65.362 3 1.073 3 1.579 0 1.727 13.848 1.062 16.785-.806 3.815-2.426 4.182-3.169 4.2-8.488.012-3.826-.551-5.36-2.985-8.132-1.65-1.879-3-3.926-3-4.549 0-.622-.418-1.913-.93-2.868-4.969-9.28-9.093-19.042-10.084-23.873-.662-3.225-1.564-6.313-2.006-6.863-1.07-1.332-1.074-1.428-1.624-36.5-.397-25.316-.217-31.52 1.058-36.5.846-3.3 2.038-8.925 2.649-12.5.612-3.575 1.449-6.95 1.859-7.5.411-.55 1.311-3.619 2-6.821 1.093-5.075 2.443-8.888 6.086-17.179.483-1.1 1.151-3.809 1.484-6.02.981-6.506 1.962-7.361 4.859-4.236 2.715 2.93 5.753 8.212 8.056 14.006.82 2.063 1.939 3.75 2.486 3.75.547 0 2.707 1.836 4.801 4.081 8.789 9.422 11.595 11.953 13.886 12.529 1.331.334 2.42.946 2.42 1.36 0 1.205 10.746 3.03 17.835 3.03 6.709 0 19.282-1.799 20.165-2.885.275-.338 2.135-1.37 4.134-2.293 5.77-2.666 10.729-7.572 11.43-11.311.754-4.018-.199-7.511-2.048-7.511-.742 0-1.499-.428-1.683-.951-.183-.523-3.483-4.417-7.333-8.654-7.078-7.79-9.215-10.838-13.952-19.895-1.438-2.75-3.51-6.499-4.606-8.331-3.008-5.03-7.186-44.934-4.988-47.633.464-.57 1.149-5.086 1.521-10.036.692-9.194 4.441-22.853 7.549-27.5.919-1.375 3.503-6.19 5.741-10.7 3.85-7.758 15.134-23.893 17.889-25.579.7-.429 3.877-3.546 7.06-6.928 10.225-10.865 12.763-13.293 13.894-13.293.609 0 3.515-2.191 6.457-4.868 2.943-2.678 7.019-5.922 9.058-7.21 2.04-1.287 3.998-2.809 4.352-3.381.354-.573 1.94-1.041 3.525-1.041s3.16-.45 3.5-1c.34-.55 1.491-1 2.559-1s1.941-.477 1.941-1.059.47-.769 1.044-.414c.574.355 1.749.06 2.612-.656.862-.716 3.047-1.174 4.855-1.018 1.808.155 3.584-.198 3.947-.785.842-1.363 17.204-1.425 18.042-.068.34.55 1.69 1 3 1s2.679.481 3.042 1.068c.363.588 1.29.827 2.059.532.77-.296 1.399-.101 1.399.431 0 .533.9.969 2 .969s2 .419 2 .93c0 .512.821 1.075 1.823 1.25 1.003.176 4.865 3.695 8.582 7.82 4.993 5.54 8.101 10.293 11.894 18.188 5.892 12.263 7.78 13.861 12.045 10.193 2.435-2.095 6.938-10.104 7.24-12.881.06-.55.368-1.675.685-2.5 3.847-10.023 4.231-12.753 4.231-30.097 0-11.407-.391-18.091-1.112-19-.612-.772-1.406-2.631-1.764-4.133-.359-1.501-1.996-5.008-3.638-7.794-1.642-2.785-2.986-5.288-2.986-5.563 0-.835-7.587-10.826-9.304-12.25-.907-.753-2.173-.993-2.902-.55-.712.433-.15-.766 1.248-2.663 3.545-4.811 16.958-26.435 16.958-27.34 0-.409 1.125-2.218 2.5-4.021s2.5-3.875 2.5-4.605c0-1.51 4.824-13.963 5.997-15.484.425-.55 1.101-2.575 1.503-4.5.402-1.925 1.076-3.95 1.497-4.5 1.083-1.412 4.188-14.219 4.607-19 1.15-13.117 1.412-33.628.562-44-1.033-12.603-3.505-26.796-5.178-29.736-.543-.955-.988-2.598-.988-3.651s-1.114-4.319-2.475-7.257c-1.362-2.938-2.763-7.258-3.114-9.599s-1.073-4.257-1.604-4.257c-.546 0-.689-1.263-.328-2.905.351-1.597.214-3.167-.305-3.488-.519-.32-1.262-2.725-1.652-5.345-.39-2.619-1.047-5.212-1.46-5.762-1.025-1.363-3.165-10.156-4.869-20-1.069-6.17-.638-35.254.544-36.72.568-.704 1.352-2.855 1.744-4.78 1.294-6.363 11.016-25.981 15.268-30.81 1.787-2.03 3.25-4.084 3.25-4.566.001-.482 1.351-3.533 3.001-6.78 4.562-8.977 3.822-13.705-2.544-16.256-3.104-1.244-13.623-1.545-17.456-.499m-928.468.859c-.328.53-1.209.729-1.959.442-.75-.288-3.323.029-5.718.704-2.395.676-5.593 1.122-7.105.992-1.512-.13-2.75.247-2.75.839C261 5.528 259.079 6 256.622 6c-2.82 0-4.857.578-5.726 1.625-1.123 1.354-2.631 1.518-9.035.984-5.579-.465-8.053-.294-9.023.625-.736.696-2.751 1.311-4.478 1.367-1.728.055-3.978.458-5 .893-1.023.436-3.12.692-4.66.569-1.541-.123-3.422.291-4.181.921-.759.63-2.778 1.186-4.485 1.234-1.708.049-3.341.469-3.629.935-.288.466-2.72.847-5.405.847s-5.124.391-5.419.869c-.295.477-3.754 1.185-7.686 1.573-3.932.387-8.33 1.193-9.772 1.791-1.443.598-3.135 1.007-3.761.909-.625-.098-2.425.351-4 .997-1.574.646-4.662 1.329-6.862 1.519-2.2.189-4.15.793-4.333 1.343-.184.549-2.236.999-4.562.999-2.765 0-4.93.655-6.258 1.892-2.035 1.895-7.347 1.889-7.347-.009 0-1.223-4.296-1.106-7.685.211-1.548.601-4.165 1.225-5.815 1.387-1.65.161-5.475.828-8.5 1.484-3.025.655-7.525 1.425-10 1.71-2.475.285-4.927.925-5.45 1.422-.522.497-1.956.903-3.185.903s-3.502.511-5.05 1.136c-1.548.625-3.94 1.188-5.315 1.25-1.375.063-3.152.534-3.95 1.046-.797.513-2.372 1.027-3.5 1.143C70.977 40.763 67 41.42 67 42.145c0 .47-1.745.855-3.878.855-2.226 0-4.407.639-5.122 1.5-1.501 1.809-4.505 1.887-12.107.317-7.462-1.541-13.564.022-14.49 3.713-.339 1.351-.907 2.277-1.262 2.057-.355-.219-2.669 2.005-5.143 4.943-2.474 2.938-4.944 5.222-5.49 5.075-.546-.147-1.483.67-2.082 1.814-.599 1.145-1.615 1.968-2.258 1.831-.642-.138-1.168.349-1.168 1.081s-1.111 1.926-2.47 2.653c-1.358.727-3.679 3.166-5.156 5.419a616.885 616.885 0 01-4.53 6.807C.393 82.341.004 84.795.017 91.71l.017 8.79 3.733 3.568c4.596 4.393 11.507 6.867 14.304 5.12 1.046-.653 2.784-1.188 3.863-1.188 1.078 0 4.076-1.125 6.662-2.5 2.586-1.375 5.733-2.5 6.994-2.5 1.261 0 2.575-.457 2.92-1.016.346-.559 1.068-.745 1.605-.413.537.332 5.248-1.46 10.469-3.984C55.804 95.064 60.508 93 61.038 93c.529 0 .962-.394.962-.875s1.459-1.167 3.242-1.523C69.163 89.817 74 87.755 74 86.867c0-.354 1.575-.94 3.5-1.301S81 84.48 81 83.955c0-2.226 6.721-.824 11.513 2.4 2.743 1.846 6 3.676 7.237 4.068 1.237.391 2.25 1.131 2.25 1.644 0 .513.675.933 1.5.933s1.5.487 1.5 1.083.563.88 1.25.631c.688-.249 2.038.234 3.002 1.073 1.582 1.379 2.185 1.303 6.25-.788 2.474-1.272 4.498-2.693 4.498-3.156 0-.464.9-.843 2-.843s2-.349 2-.776c0-.427 1.747-.61 3.883-.407 2.137.204 4.187-.121 4.559-.723.372-.602 3.274-1.094 6.45-1.094s6.092-.317 6.479-.704c.388-.388 1.925-.839 3.417-1.003 2.787-.306 8.174-1.245 11.712-2.041 1.1-.248 5.938-.663 10.75-.922l8.75-.472V122.841l-2.916.641c-1.605.352-3.185 1.338-3.512 2.192-.479 1.247-.885 1.311-2.072.326-1.19-.988-1.596-.913-2.095.387-.341.887-1.381 1.613-2.312 1.613-.931 0-2.121.376-2.643.835-1.495 1.314-10.813 4.617-12.213 4.33-.695-.142-1.541.463-1.879 1.346-.339.882-1.233 1.367-1.987 1.078-.778-.299-1.371.109-1.371.942 0 1.894-1.54 2.125-6.269.938-2.161-.543-2.731-.336-2.731.99 0 1.186-.55 1.501-1.882 1.079-1.207-.384-2.1-.027-2.493.996-.336.876-1.064 1.313-1.618.97-.554-.342-1.007-.145-1.007.437s-.9 1.059-2 1.059-2 .378-2 .839c0 1.131-4.595 3.161-7.154 3.161-1.346 0-1.875.481-1.528 1.387.374.973-.042 1.236-1.393.883-1.389-.363-1.929.016-1.94 1.363-.012 1.429-.217 1.549-.875.51-.559-.881-1.086-.991-1.505-.313-.794 1.285-6.451 4.17-8.176 4.17-.696 0-3.505 1.125-6.242 2.5-2.738 1.375-5.362 2.508-5.832 2.517-.47.01-1.913 1.133-3.206 2.497-1.294 1.363-2.709 2.258-3.146 1.988-.436-.27-1.062.21-1.391 1.067-.329.857-.945 1.343-1.368 1.082-.424-.262-2.693.834-5.043 2.436-2.349 1.602-4.651 2.913-5.114 2.913-.463 0-1.411.685-2.106 1.523-.713.858-2.054 1.271-3.076.947-1.898-.603-7.905 4.234-7.905 6.365 0 .615-1.051 1.808-2.336 2.649-1.285.842-3.86 3.653-5.723 6.247-3.679 5.124-4.429 9.902-2.555 16.269 1.356 4.602 2.459 6 4.736 6 1.033 0 1.878.422 1.878.939 0 1.515 9.115 2.443 13.223 1.347 2.952-.788 3.777-.724 3.777.294 0 .716-.422 1.562-.937 1.881-1.941 1.2-4.063 7.002-4.063 11.11 0 4.192 2.552 11.239 5.315 14.679 1.706 2.124 7.363 2.317 11.099.379 1.454-.754 4.6-3.342 6.992-5.75 5.158-5.193 7.594-7.208 7.594-6.283 0 .372 2.201-1.561 4.892-4.294 2.69-2.733 6.403-5.581 8.25-6.329 1.847-.748 3.583-1.637 3.858-1.976 1.279-1.576 10.496-5.997 12.504-5.997 1.238 0 2.735-.583 3.325-1.294.591-.712 2.671-1.921 4.623-2.687 1.951-.766 3.548-1.758 3.548-2.206 0-.447.92-.813 2.045-.813s3.171-1.125 4.546-2.5c1.375-1.375 2.817-2.502 3.204-2.504.388-.002 2.919-1.127 5.624-2.5 2.706-1.373 5.744-2.496 6.75-2.496 1.007 0 1.831-.498 1.831-1.107s.622-.868 1.382-.576c1.629.624 8.695-1.666 12.176-3.947l2.442-1.6-.048 66.865c-.04 57.046-1.015 131.721-2.446 187.365-1.409 54.794-2.64 193.687-3.019 340.5-.245 94.6-.611 173.35-.814 175a78.848 78.848 0 01-1.028 6c-.363 1.65-1.147 8.85-1.743 16-.597 7.15-1.345 15.025-1.662 17.5-1.101 8.585-.686 31.351.579 31.773.65.217 1.181 1.094 1.181 1.95 0 3.982 8.533 5.799 11.867 2.527 2.551-2.503 6.441-9.12 7.778-13.231.961-2.952 1.162-.805 1.25 13.336l.105 16.856-7.75-.356c-4.262-.195-7.979-.656-8.258-1.023-.28-.367-6.944-.92-14.811-1.228-7.866-.308-14.619-.757-15.007-.997-1.046-.646-31.491-.529-32.55.125-.499.309-3.853.714-7.452.901-3.599.186-7 .795-7.558 1.353-.558.558-2.542 1.014-4.41 1.014-3.468 0-9.204 2.703-9.204 4.338 0 .499-.686.338-1.524-.358s-1.627-1.088-1.754-.873c-.126.216-1.17 1.743-2.32 3.393-3.408 4.887-5.402 9.242-5.402 11.795 0 1.317-.937 3.243-2.083 4.28-4.76 4.308-6.447 15.052-3.34 21.279 1.916 3.84 7.631 8.385 10.113 8.043.996-.137 3.61.277 5.81.921 4.806 1.407 15.477 1.498 21 .18 2.2-.526 10.525-1.145 18.5-1.377 7.975-.233 17.537-.754 21.25-1.159 4.807-.524 6.75-.409 6.75.401 0 .625-.653 1.137-1.45 1.137-.798 0-1.844.703-2.325 1.563-.481.859-1.516 1.691-2.3 1.849-.784.157-2.325.622-3.425 1.033-1.1.411-2.591.926-3.313 1.144-.723.218-1.07.792-.771 1.275.298.483-1.216 1.114-3.366 1.402-2.15.289-4.926 1.472-6.168 2.629-1.243 1.158-3.026 2.105-3.964 2.105-.937 0-1.95.64-2.25 1.422-.351.915-1.342 1.214-2.775.84-1.778-.465-2.102-.248-1.597 1.067.456 1.189-.056 1.824-1.831 2.269-1.356.34-2.465 1.068-2.465 1.617 0 .55-.692.733-1.538.409-.875-.336-1.783.049-2.107.893-.313.816-1.196 1.483-1.962 1.483s-1.393.45-1.393 1-.8 1-1.777 1c-.978 0-2.719.659-3.869 1.465-1.15.805-2.282 1.274-2.514 1.042-.233-.233-1.979.907-3.882 2.532-1.902 1.626-3.763 2.957-4.135 2.959-1.204.004-3.696 5.972-4.37 10.466-.99 6.601.267 11.87 3.66 15.34l2.977 3.046 15.435.011c8.528.007 15.695-.407 16.014-.925.319-.515 1.565-.939 2.77-.943 1.205-.003 3.493-.864 5.084-1.913 1.591-1.049 3.504-1.673 4.25-1.387.746.287 1.357.023 1.357-.586s1.098-1.107 2.441-1.107c1.343 0 2.707-.43 3.032-.956.325-.526 1.248-.705 2.051-.397a1.566 1.566 0 002.018-.895c.346-.902 1.445-1.286 2.891-1.01 1.283.246 2.637-.046 3.009-.648.372-.602 1.708-1.094 2.97-1.094 1.262 0 5.396-1.125 9.187-2.5 3.791-1.375 7.406-2.5 8.033-2.5.628 0 1.345 1.389 1.594 3.086.38 2.591.038 3.253-2.137 4.128-1.424.573-4.164 1.116-6.089 1.205-7.991.373-19.236 3.374-18.697 4.991.419 1.256-1.683 3.59-3.232 3.59-.589 0-1.078.563-1.086 1.25-.012.983-.183.987-.797.02-.544-.856-1.315-.325-2.541 1.75-.968 1.639-2.331 2.98-3.029 2.98-1.295 0-5.618 4.081-5.618 5.303 0 .689-2.28 3.658-5.046 6.57-4.717 4.966-5.23 13.221-1.204 19.371 4.792 7.32 5.527 7.756 13.083 7.756 3.759 0 7.166-.337 7.572-.75.407-.412 5.769-1.325 11.917-2.028 6.148-.703 14.328-1.696 18.178-2.208 3.85-.511 10.301-1.2 14.336-1.529 4.035-.33 8.31-.94 9.5-1.356 2.361-.824 5.262-.764 13.664.286 3.025.378 7.75.877 10.5 1.109 2.75.233 8.15.917 12 1.521 3.85.604 9.386 1.239 12.302 1.412 2.916.172 5.578.59 5.916.928.339.338 3.214.615 6.39.615 3.176 0 6.052.45 6.392 1 .34.55 3.49 1 7 1 3.517 0 6.684.488 7.054 1.087.369.598 1.48.876 2.467.618.988-.259 3.75-.063 6.138.434 2.387.498 5.691 1.089 7.341 1.314 1.65.226 6.375.888 10.5 1.472s11.1 1.526 15.5 2.093c4.4.568 10.025 1.295 12.5 1.618 2.475.322 6.525.784 9 1.027 2.475.243 5.463.917 6.639 1.499 1.176.581 4.214.892 6.75.69 2.536-.201 4.615-.138 4.619.141.013.825 5.239 3.007 7.205 3.007 1.754 0 2.751.377 7.523 2.844 5.294 2.736 10.149.29 13.826-6.966 2.647-5.224 3.012-9.269 1.372-15.177-1.27-4.572-6.598-10.022-9.146-9.356-.984.257-1.788.158-1.788-.22 0-.772-9.05-3.69-10.305-3.323-.443.129-1.78-.449-2.972-1.284-1.193-.835-2.968-1.518-3.946-1.518-.977 0-1.777-.418-1.777-.928s-2.475-1.237-5.5-1.615c-3.025-.378-5.5-1.086-5.5-1.572 0-.487-1.125-.885-2.5-.885s-2.5-.45-2.5-1c0-.556-2.667-1-6-1s-6-.444-6-1c0-.55-.929-1-2.065-1-1.135 0-4.173-.836-6.75-1.859-6.64-2.634-11.556-4.141-13.506-4.141-.923 0-1.679-.45-1.679-1s.337-1.006.75-1.012c.413-.007 2.682-1.807 5.043-4 2.362-2.194 4.724-3.988 5.25-3.988.527 0 .963-1.687.971-3.75.028-7.886.609-8.412 10.67-9.674 1.752-.22 4.227-.739 5.5-1.154 3.178-1.036 4.535-1.202 18.816-2.295 15.951-1.221 30.011-3.062 32.236-4.222.955-.498 3.291-.905 5.191-.905s3.734-.452 4.075-1.004c.341-.552 1.623-.752 2.848-.444 1.226.307 3.561.049 5.189-.575 1.841-.704 9.454-1.088 20.127-1.015 9.442.065 17.42-.292 17.729-.793.31-.501 1.828-1.164 3.373-1.473 2.063-.412 3.378-1.709 4.946-4.879 3.695-7.469 3.891-12.475.787-20.067-.475-1.162-.256-1.75.651-1.75 1.37 0 3.019-2.131 5.593-7.225 1.668-3.302 2.582-15.455 1.225-16.294-.534-.329-.97-1.404-.97-2.387 0-2.263-3.269-6.094-5.201-6.094-.806 0-1.775-.309-2.153-.687-.378-.378-1.465-.783-2.416-.899-.952-.117-4.43-1.037-7.73-2.044-3.34-1.02-9.547-1.901-14-1.987-4.4-.085-8.9-.397-10-.692-1.1-.296-2.675-.574-3.5-.619-.825-.044.34-1.316 2.588-2.826 8.248-5.54 13.815-13.852 13.715-20.478-.097-6.449-4.163-14.248-7.465-14.32-1.314-.029-3.052-.472-3.863-.985-.811-.513-10.488-.964-21.504-1.002-11.015-.038-20.598-.421-21.293-.851-.696-.43-1.893-.262-2.659.375-.803.666-3.432.985-6.199.753-5.388-.451-12.32.97-12.32 2.526 0 .652-2.195.791-6.079.386-3.343-.35-6.879-.207-7.858.316-.978.524-3.418 1.063-5.421 1.197-2.003.135-3.642.604-3.642 1.041 0 .438-1.773.796-3.941.796s-4.219.45-4.559 1c-.34.55-2.541 1-4.892 1-2.351 0-4.552.277-4.89.616-.339.338-2.372.746-4.519.906l-3.903.292-.6-11.924c-.329-6.558-.958-12.479-1.398-13.157-.439-.678-.858-2.808-.931-4.733-.074-1.925-.873-8.225-1.776-14-.904-5.775-1.833-11.85-2.066-13.5-.233-1.65-1.146-7.5-2.028-13-.883-5.5-1.793-11.35-2.024-13-.23-1.65-.843-5.7-1.361-9-.519-3.3-1.001-9.6-1.071-14-.071-4.4-.566-10.025-1.101-12.5-2.587-11.972-5.215-32.756-5.562-44-.782-25.294-.863-36.003-.273-36.001.692.001 4.097 25.004 4.007 29.43-.033 1.611.319 3.411.781 4 .463.589 1.091 7.921 1.398 16.293.306 8.372.914 15.797 1.351 16.5.438.703.856 2.853.931 4.778.178 4.621 3.09 24.454 4.317 29.402.532 2.146 1.278 7.215 1.658 11.264.379 4.05 1.087 7.609 1.573 7.909.486.3.609 2.259.275 4.352-.351 2.194-.115 4.729.556 5.983.641 1.197 1.576 7.895 2.08 14.883 1.995 27.713 2.545 29.79 10.84 40.911 3.739 5.013 5.173 6.213 7.468 6.25 2.61.042 6.537-3.075 6.627-5.26.018-.443 1.372-3.504 3.008-6.802l2.975-5.996-.396-72.198c-.218-39.709-1.101-93.798-1.962-120.198-.862-26.4-1.733-55.875-1.937-65.5-.203-9.625-.865-32.51-1.469-50.856-.604-18.345-1.189-40.35-1.299-48.898-.185-14.282-.046-15.652 1.706-16.889 1.049-.74 3.369-2.709 5.155-4.375 3.515-3.279 7.662-5.302 10.602-5.173 1.018.045 2.766-.771 3.886-1.814 1.119-1.042 3.318-2.177 4.888-2.522 1.569-.345 3.11-1.042 3.424-1.55.313-.508 2.125-.923 4.025-.923 1.9 0 4.236-.421 5.191-.935 3.662-1.973 67.522-5.05 80.236-3.867 4.125.384 26.175 1.005 49 1.379l41.5.681 2.75-2.765c2.625-2.64 2.75-3.211 2.75-12.57 0-5.875-.428-10.07-1.068-10.465-.588-.363-.802-1.353-.477-2.2.324-.847-.092-2.582-.927-3.855-1.47-2.244-2.065-2.33-19.272-2.792-19.581-.525-23.477-.872-27.429-2.442-1.47-.583-3.945-.939-5.5-.79-1.555.149-3.315-.094-3.912-.54-.597-.446-3.185-.89-5.75-.987-2.566-.097-4.665-.457-4.665-.8s-.788-.646-1.75-.675c-.962-.028-5.125-.412-9.25-.853s-8.062-.815-8.75-.83c-1.929-.042-1.478-1.679.5-1.812.962-.066 2.087-.066 2.5 0 .413.065.75-.236.75-.669 0-.433 1.413-.895 3.141-1.027 2.687-.205 8.232-2.559 9.859-4.186.275-.275 2.222-1.377 4.327-2.449 2.105-1.072 4.473-3.197 5.261-4.721.788-1.525 2.367-3.642 3.509-4.706 3.041-2.833 3.766-12.477 1.331-17.711-1.001-2.152-2.44-4.291-3.197-4.754-1.165-.711-1.159-1.095.041-2.5 2.588-3.028 4.901-10.425 4.285-13.705-.324-1.727-1.919-4.898-3.545-7.047s-2.969-4.743-2.984-5.764c-.019-1.235-.531-1.664-1.528-1.281-.825.316-1.5.139-1.5-.393 0-.533-1.323-.969-2.941-.969-1.618 0-3.188-.399-3.489-.887-.301-.487-2.239-1.204-4.307-1.591-2.067-.388-4.059-1.193-4.427-1.788-.476-.77-3.073-.708-9.01.215-9.209 1.433-41.346.309-42.638-1.49-2.289-3.19-5.329-3.459-39.109-3.459-20.905 0-34.991.396-36.662 1.032-1.492.567-4.784 1.194-7.315 1.393l-4.602.362.252-21.644c.138-11.903.679-59.668 1.202-106.143.524-46.475 1.2-89 1.504-94.5.747-13.537 2.042-69.435 2.042-88.15V175.2l9.5-.713c5.225-.392 13.296-.691 17.935-.664 4.64.027 9.207-.364 10.15-.869.943-.504 8.173-1.141 16.065-1.415 13.172-.457 32.652-1.468 56.85-2.949 5.225-.32 18.05-1.064 28.5-1.653s26.65-1.517 36-2.061c23.049-1.342 64.295-1.356 91-.031 12.1.6 32.35 1.558 45 2.128 12.65.57 28.625 1.303 35.5 1.628 6.875.326 18.575.822 26 1.104 7.425.282 13.95.866 14.5 1.298 1.376 1.081 13.5.973 13.5-.121 0-.485.469-.882 1.042-.882 1.376 0 4.84-3.276 7.118-6.73 1.005-1.523 1.83-4.577 1.833-6.785l.007-4.015 8.418.015c7.485.013 8.697-.247 10.936-2.349 3.407-3.2 8.261-14.669 6.925-16.364-.552-.7-1.28-2.434-1.618-3.855-.339-1.421-2.464-4.684-4.723-7.25-3.259-3.702-4.762-4.668-7.273-4.673-1.741-.004-4.484-.694-6.095-1.534-1.612-.841-5.549-1.802-8.75-2.137-5.689-.594-8.04-2.204-3.57-2.444 2.566-.138 3.158-.093 14.75 1.117 15.808 1.65 33.456 3.055 42.5 3.383 10.798.391 12.401-.397 15.512-7.627 2.965-6.895 2.239-13.59-2.223-20.48-3.482-5.376-5.829-6.774-12.767-7.606-2.464-.295-4.639-1.016-4.834-1.601-.195-.586-.916-1.065-1.602-1.065s-3.461-1.123-6.167-2.496c-2.705-1.373-5.481-2.498-6.169-2.5-.687-.002-1.25-.393-1.25-.868 0-.909-7.666-4.136-9.825-4.136-.692 0-2.166-.845-3.275-1.878-1.21-1.128-4.074-2.076-7.166-2.374-2.832-.272-5.318-1.001-5.525-1.621-.207-.62-1.013-1.127-1.792-1.127-.78 0-1.417-.45-1.417-1s-.719-1-1.599-1c-1.787 0-5.147-1.398-17.053-7.098-4.484-2.146-8.646-3.902-9.25-3.902-.604 0-1.098-.45-1.098-1s-1.098-1-2.441-1c-1.343 0-2.707-.43-3.032-.956-.325-.526-1.325-.675-2.223-.33-1.091.418-1.392.238-.909-.544.398-.644 1.187-1.17 1.754-1.17 1.382 0 4.453-3.667 6.874-8.21 2.139-4.015 2.54-9.179 1.022-13.173C713.622 17.876 707.042 11 704.884 11c-1.036 0-1.884-.432-1.884-.96s-1.237-.968-2.75-.979c-8.388-.059-24.96-1.138-26.25-1.71-3.757-1.663-26.641-4.211-46-5.122-24.387-1.147-348.771-1.408-349.468-.281M888 44.088c0 .619-.675.867-1.5.55-.825-.316-1.5-.171-1.5.324 0 1.611-4.469 7.952-5.635 7.996-1.823.068-4.292 4.605-3.712 6.822.334 1.277-.248 2.815-1.561 4.128-1.15 1.15-2.092 1.754-2.092 1.342 0-.412-1.25 1.612-2.777 4.499-1.527 2.886-3.552 6.154-4.5 7.261-.947 1.107-1.723 2.669-1.723 3.47 0 .835-.595 1.229-1.394.922-1.019-.391-1.53.626-1.899 3.782-.572 4.898-1.156 7.796-2.58 12.816-3.463 12.202-4.188 15.273-3.716 15.745.292.291-.412 1.852-1.564 3.469-1.548 2.175-1.801 3.232-.97 4.063.618.618 1.123 1.863 1.123 2.768 0 .905.855 2.419 1.901 3.365 1.046.947 2.208 3.356 2.583 5.354.375 1.999 1.319 4.544 2.099 5.657.779 1.113 1.417 3.361 1.417 4.995 0 4.219 9.879 13.848 13.801 13.451 1.484-.15 3.55.21 4.591.799 1.041.59 2.677.867 3.637.616s2.048.033 2.417.631c.37.598 3.31 1.087 6.533 1.087h5.862l.627 6.75c.345 3.713.983 7.425 1.418 8.25.435.825.596 3.134.357 5.132-.242 2.026.05 3.931.661 4.309 1.774 1.096 1.257 2.559-.904 2.559-1.1 0-2-.45-2-1s-2.446-1-5.435-1c-2.989 0-6.702-.534-8.25-1.188-1.548-.653-4.165-1.274-5.815-1.38-3.535-.228-15.656-5.71-17.479-7.906-.696-.839-2.681-1.526-4.411-1.526-1.73 0-4.825-1.141-6.878-2.536S845 168.187 845 168.503c0 .316-.985-.343-2.189-1.464-1.203-1.121-2.778-2.039-3.5-2.039-.721 0-1.311-.488-1.311-1.083 0-.596-.553-.899-1.228-.674-.676.225-1.688.031-2.25-.432-3.69-3.037-10.339-7.572-12.022-8.2-1.767-.659-1.812-.851-.384-1.653.889-.499 2.588-3.168 3.777-5.93 2.01-4.674 2.053-5.232.608-8.026-.854-1.651-2.176-3.002-2.939-3.002-.83 0-1.648-1.552-2.04-3.869-.469-2.778-1.347-4.186-3.109-4.989-2.148-.979-2.847-.745-5.583 1.87-1.719 1.643-3.68 2.988-4.356 2.988-.677 0-2.722 2.462-4.546 5.472-1.824 3.01-3.519 5.27-3.767 5.022-.247-.247-2.322 2.578-4.611 6.278-3.042 4.918-4.656 6.64-5.999 6.401-1.585-.282-1.758.165-1.257 3.25.319 1.967.249 3.577-.156 3.577s-1.344 1.688-2.086 3.75c-1.754 4.874-4.056 8.365-5.093 7.725-1.367-.845-3.96 3.766-3.937 6.998.012 1.665.902 4.152 1.978 5.527s1.966 2.981 1.978 3.57c.031 1.518 4.745 5.43 6.543 5.43.828 0 2.459.562 3.623 1.25 1.694 1 2.208 1 2.57 0 .249-.687 1.012-1.25 1.695-1.25 1.991 0 5.118-4.122 6.996-9.222l1.739-4.722 2.117 1.972c1.164 1.085 2.455 1.972 2.869 1.972.415 0 3.325 2.25 6.467 5 3.143 2.75 6.25 5 6.905 5 1.745 0 7.697 3.113 9.937 5.196 1.066.992 2.492 1.804 3.169 1.804.676 0 2.729.751 4.561 1.669 1.832.917 4.006 1.978 4.831 2.357 2.134.98 2.707 4.459.601 3.651-.88-.338-1.601-.178-1.601.354 0 .533-.89 1.859-1.977 2.946-1.087 1.087-2.646 3.45-3.464 5.25-2.025 4.457-6.432 11.899-8.284 13.987-.876.988-1.865 5.009-2.337 9.5-.449 4.282-1.573 9.956-2.497 12.609-1.828 5.251-1.446 11.132.847 13.033.759.629 1.959 4.294 2.667 8.144.823 4.477 2.098 7.901 3.537 9.5 1.237 1.375 3.074 3.85 4.082 5.5s3.621 4.8 5.806 7c3.439 3.462 3.714 4.048 2.047 4.358-1.06.196-2.512.832-3.227 1.413-1.594 1.296-5.2 9.043-5.2 11.174 0 2.08-1.907 1.965-4.436-.268-3.405-3.008-8.438-3.877-18.579-3.209-6.769.446-10.829 1.262-14.066 2.829-2.503 1.212-5.202 2.203-5.997 2.203-.796 0-2.306 1.144-3.356 2.541-1.049 1.398-2.489 2.319-3.199 2.046-1.594-.611-11.367 8.489-11.367 10.585 0 1.858-2.774 7.57-4.063 8.367-.515.319-.937 1.385-.937 2.371s-1.13 3.918-2.512 6.517c-1.382 2.598-2.299 5.071-2.037 5.493.261.423-.378 3.014-1.42 5.757-1.463 3.85-1.696 5.876-1.019 8.878 1.006 4.459.666 5.252-1.488 3.465-1.846-1.532-3.502-.41-6.46 4.377-1.594 2.579-1.798 3.914-1.089 7.137.48 2.182 1.401 7.341 2.048 11.466.646 4.125 1.595 8.4 2.107 9.5.513 1.1 1.03 3.35 1.151 5l.219 3-5.957.122c-3.432.07-6.117.6-6.334 1.25-.206.62-.808 1.128-1.336 1.128s-2.148 1.101-3.599 2.446c-1.451 1.346-2.978 2.237-3.394 1.98-.416-.257-2.155 1.567-3.866 4.053-1.71 2.487-3.812 4.521-4.669 4.521-.951 0-1.342.566-1.003 1.449.337.879.075 1.265-.665.98-.773-.296-2.837 3.392-5.618 10.044-2.418 5.782-5.263 11.442-6.322 12.578-1.284 1.379-1.727 2.851-1.332 4.425.325 1.297.233 2.508-.206 2.691-1.112.464-7.062 13.08-7.271 15.417-.227 2.543-.221 30.412.008 32.732.317 3.219 3.666 8.175 5.732 8.482 1.104.164 2.585-.398 3.292-1.25 1.631-1.965 3.04-1.987 3.04-.048 0 .825.573 1.5 1.273 1.5s2.827 1.8 4.727 4c3.564 4.127 5.798 4.788 10.342 3.06 4.329-1.646 4.408-6.089.251-14.147-1.976-3.831-3.592-8.191-3.59-9.689.001-1.498-.729-5.737-1.623-9.421-2.276-9.383-1.231-19.11 2.418-22.491 2.67-2.475 14.331-8.312 16.605-8.312.695 0 1.577-.313 1.959-.696 1.203-1.202 3.642-1.179 3.557.034-.044.639-1.146 2.962-2.449 5.162-2.199 3.715-5.431 10.047-7.734 15.155-.535 1.185-.686 2.616-.338 3.181a1.204 1.204 0 01-.382 1.654c-.559.345-1.016 2.086-1.016 3.869 0 1.783-.529 3.77-1.176 4.417-1.44 1.44-1.323 13.527.241 24.724 1.09 7.804 5.052 18.523 7.643 20.672.71.59 1.292 1.485 1.292 1.989s-.985-.001-2.189-1.122c-2.63-2.451-7.811-2.778-7.811-.494 0 1.245-.729 1.408-3.75.838-2.062-.389-4.987-.71-6.5-.712-1.513-.002-2.75-.379-2.75-.838 0-1.747-5.932-.828-6.952 1.077-.689 1.287-1.698 1.733-3.094 1.368-1.467-.384-2.218.008-2.573 1.34-.502 1.887-7.338 7.382-9.184 7.382-.541 0-1.253.704-1.583 1.563-.33.86-1.053 1.284-1.607.941-.554-.342-1.007-.076-1.007.591 0 .667-1.729 2.831-3.841 4.809-2.334 2.185-4.264 5.166-4.918 7.596-.592 2.2-2.08 7.375-3.307 11.5-2.033 6.836-2.131 8.198-1.102 15.374.621 4.331 1.643 8.493 2.271 9.25.628.757.772 1.376.319 1.376-.452 0-.282.54.378 1.2 1.533 1.533 1.532 4.296-.002 6.752-1.285 2.057-1.373 1.755 3.55 12.148 1.458 3.08 2.652 6.351 2.652 7.269 0 2.123 7.088 11.498 8.75 11.574.688.031 1.25.435 1.25.896 0 .462 1.795 1.699 3.989 2.75 2.193 1.051 3.993 2.248 4 2.661.018 1.184 16.627.873 21.818-.409 5.322-1.314 13.403-6.186 17.354-10.462 1.464-1.583 4.572-6.704 6.908-11.379 2.336-4.675 5.237-9.85 6.447-11.5 3.111-4.244 5.553-9.579 4.882-10.665-.314-.508-.085-1.507.508-2.222 1.586-1.911 3.378-13.149 3.286-20.613-.072-5.887-.689-10.777-2.651-21l-.672-3.5 6.22.162c5.368.14 9.017-.752 10.911-2.668 1.636-1.654 8.019-5.994 8.817-5.994.522 0 1.19-1.013 1.484-2.25.918-3.86 3.657-10.993 6.734-17.537 2.409-5.122 3.167-8.551 4.085-18.5 1.074-11.64.689-31.662-.702-36.463-.557-1.926-.275-2.25 1.965-2.25 1.44 0 2.617.399 2.617.886 0 .848 7.328 2.48 11.476 2.556 2.27.041 4.487-3.68 4.509-7.567.027-4.693-1.204-8.875-2.61-8.875-.756 0-1.375-.45-1.375-1s.432-1 .96-1c1.683 0 3.552-7.951 2.329-9.909-.594-.951-.854-2.916-.577-4.365.42-2.196.07-2.742-2.104-3.288-2.719-.683-3.615-2.438-1.245-2.438 2.087 0 4.406-9.326 5.094-20.487.339-5.493 1.05-10.42 1.58-10.95.53-.53.963-1.935.963-3.123 0-1.189 1.201-3.911 2.668-6.05 5.506-8.028 2.519-17.814-5.668-18.568-1.925-.177-3.872-.772-4.326-1.322-.535-.648-1.005-.56-1.333.25-.279.687-1.576 1.25-2.882 1.25-3.089 0-7.965 7.849-7.076 11.391.504 2.005.219 2.359-1.895 2.359-1.369 0-2.488-.296-2.488-.657 0-.361-2.138-1.27-4.75-2.02s-5.2-1.629-5.75-1.953c-.55-.324-1.341-.596-1.758-.605-1.905-.038-6.912-12.318-7.451-18.273-.514-5.686-.348-6.463 1.821-8.509 1.314-1.238 3.528-3.627 4.921-5.31 1.392-1.683 4.049-3.816 5.903-4.741 3.799-1.895 10.599-2.243 11.618-.595.369.598 1.52.865 2.558.594 1.037-.271 2.138-.085 2.446.413.308.498 1.386.906 2.397.906 1.589 0 1.817.789 1.695 5.858-.186 7.778 1.606 11.142 5.936 11.142 1.786 0 3.416.506 3.622 1.125.679 2.035 5.68 1.231 7.769-1.25 3.747-4.448 6.846-12.366 7.951-20.312.612-4.403 1.968-9.296 3.046-10.997 1.069-1.686 2.975-5.176 4.235-7.754 1.26-2.578 3.21-5.113 4.332-5.633 1.123-.52 3.148-2.57 4.5-4.556 1.353-1.985 3.162-3.612 4.02-3.616.859-.004 2.528-.907 3.709-2.007 1.18-1.1 2.479-2 2.884-2 1.089 0 8.651-5.26 10.064-7 .67-.825 1.231-2.175 1.247-3 .016-.825.906-3.3 1.977-5.5 9.105-18.704 13.346-28.617 14.287-33.391.609-3.085 1.392-5.834 1.742-6.109.35-.275 1.371-4.775 2.27-10 1.186-6.895 1.385-10.808.723-14.27-.756-3.959-.618-5.109.813-6.767.947-1.1 1.95-3.228 2.228-4.731.387-2.097 1.156-2.807 3.309-3.054 1.542-.177 3.051-.965 3.352-1.75.667-1.738 3.015-1.885 3.568-.225.417 1.251 6.819 1.5 8.698.339.588-.363 1.068-3.539 1.068-7.057 0-5.35-.505-7.253-3.087-11.632-1.698-2.88-3.773-8.187-4.612-11.794-.839-3.608-2.15-7.977-2.913-9.71-.764-1.733-1.388-4.294-1.388-5.691 0-1.397-.451-2.819-1.002-3.159-.564-.348-.741-2.256-.405-4.358.44-2.748.176-4.088-.997-5.062-2.284-1.895-2.011-3.033 1.914-7.97 1.919-2.415 3.49-4.777 3.49-5.25 0-.472.839-1.698 1.865-2.724 2.417-2.417 7.135-12.733 7.135-15.601 0-1.223.914-4.881 2.031-8.129 2.47-7.181 3.649-26.308 2.121-34.405-4.755-25.201-6.801-29.559-16.362-34.863-3.264-1.811-4.93-1.999-13.884-1.573-5.597.266-10.584.737-11.084 1.046-.501.309-1.452.135-2.116-.386-2.027-1.594-6.706-2.386-6.706-1.136M368.458 54.879c-.598.593-19.552 4.265-23.458 4.545-1.925.138-4.512.58-5.75.981-2.396.777-2.445 1.009-2.646 12.595-.061 3.575-.513 7.802-1.003 9.394-.868 2.822-.818 2.875 2.004 2.138 1.592-.416 5.708-.969 9.145-1.23 3.438-.26 6.25-.884 6.25-1.387 0-1.215 13.606-1.175 17.885.052 2.572.738 3.868.619 5.466-.5 1.152-.807 3.823-1.467 5.937-1.467 2.114 0 4.642-.427 5.617-.949.975-.522 3.983-1.08 6.684-1.239 2.701-.16 5.136-.544 5.411-.855.995-1.123 10.056-2.675 10.589-1.813.298.483 1.513.198 2.699-.633 1.499-1.05 4.663-1.511 10.375-1.511 4.521 0 8.46-.39 8.755-.867.294-.477 6.923-.947 14.729-1.046 7.807-.099 14.58-.419 15.052-.71.472-.292 7.41-.719 15.417-.949 8.008-.23 14.875-.613 15.26-.851.385-.238 6.983-.525 14.662-.638 7.679-.112 14.675-.57 15.547-1.018.872-.448 8.209-.921 16.304-1.05 8.095-.129 14.925-.57 15.178-.98.253-.409 5.478-.776 11.61-.814 12.276-.076 16.234-.995 5.24-1.216-3.804-.077-8.717-.293-10.917-.481-2.2-.188-14.35-.751-27-1.252-30.424-1.204-40.786-1.739-60.5-3.122-34.602-2.428-49.367-3.062-76.33-3.281-15.306-.124-28.002-.054-28.212.154m-59.97 9.14c-.346.56-2.285 1.017-4.309 1.016-9.795-.009-25.179 1.247-25.179 2.056 0 .5-2.055.909-4.567.909-4.275 0-4.524.144-3.878 2.25.379 1.237 1.026 2.7 1.437 3.25.411.55 1.315 2.8 2.008 5 .693 2.2 1.59 4.45 1.992 5 .403.55 1.038 2.277 1.411 3.838.562 2.349.931 2.63 2.138 1.628.803-.666 1.459-2.01 1.459-2.986 0-2.068 4.901-7.98 6.616-7.98.643 0 1.454-.739 1.801-1.643.346-.904.916-1.358 1.265-1.009.348.349 1.232.138 1.963-.468 3.617-3.002 11.608 4.223 12.034 10.881.262 4.097.696 4.693 2.821 3.877 1.175-.451 1.34-1.069.634-2.387-.647-1.209-.5-2.853.457-5.13.775-1.843 1.409-4.847 1.409-6.677 0-1.829.353-3.544.784-3.81.431-.267.608-2.318.395-4.559-.378-3.962-1.408-5.131-2.691-3.056M902 66.999c-.825.485-2.788 1.155-4.363 1.489-3.443.73-13.652 10.635-13.602 13.197.02.998.627 2.881 1.35 4.185 1.671 3.013.791 7.217-2.235 10.683-2.098 2.404-2.275 3.294-1.653 8.32.69 5.576 3.882 14.123 5.278 14.132.399.002 2.191 1.379 3.984 3.059 2.77 2.596 4.27 3.137 10 3.611l6.741.557 1.944-5.366c1.068-2.951 2.005-5.591 2.081-5.866.076-.275.476-1.85.89-3.5.414-1.65 1.013-3.675 1.332-4.5.319-.825.658-1.725.753-2 .095-.275.418-1.175.718-2 2.311-6.351 2.961-10.693 2.635-17.606-.337-7.167-.693-8.328-3.862-12.605-1.92-2.591-4.279-4.729-5.241-4.75-.962-.021-1.75-.489-1.75-1.039 0-1.213-2.936-1.214-5-.001M249.5 72c-.34.55-1.851 1-3.359 1s-3.24.499-3.849 1.108c-.611.611-3.168.944-5.698.743-2.524-.201-4.703-.05-4.842.336-.138.386-2.84.803-6.002.928s-5.75.6-5.75 1.056c0 .456-1.881.829-4.179.829s-5.673.54-7.5 1.201L205 80.402V113.767l2.475.473c1.603.306 3.065-.18 4.152-1.38 1.189-1.315 2.034-1.556 2.908-.831.873.724 1.402.578 1.817-.503.322-.84 1.274-1.526 2.117-1.526.842 0 1.531-.501 1.531-1.113 0-.67 1.203-.938 3.019-.671 1.786.262 3.469-.1 4.122-.886.607-.732 2.144-1.33 3.416-1.33 4.886 0 6.893-1.632 8.783-7.139 1.011-2.949 2.924-7.696 4.25-10.549 1.325-2.854 2.41-5.652 2.41-6.219 0-.566.675-.771 1.5-.455 1.122.431 1.5-.159 1.5-2.34 0-1.604.661-3.789 1.468-4.857.808-1.067 1.483-2.279 1.5-2.691.047-1.098-1.747-.916-2.468.25m.5 169.167c0 35.291.279 63.887.621 63.545.342-.341 1.228-8.629 1.97-18.416.742-9.788 1.563-20.496 1.825-23.796.262-3.3.613-23.888.78-45.75L255.5 177H250v64.167m-29.49-62.183c-.345.559-3.471 1.016-6.947 1.016-4.058 0-6.716.479-7.429 1.339-.801.965-1.121 34.267-1.146 119.143-.02 64.792.2 118.04.488 118.328.288.288.592-1.239.675-3.393.273-7.08.447-9.75 1.661-25.417 1.982-25.585 2.094-27.169 2.528-36 .229-4.675 1.14-17.5 2.022-28.5.883-11 1.776-23.15 1.984-27 .375-6.929 2.024-25.343 3.135-35 1.202-10.449 1.691-18.758 2.531-43 1.055-30.458 1.56-38.999 2.386-40.336.349-.564.208-1.289-.313-1.611-.521-.322-1.229-.128-1.575.431m637.279 48.491c-5.358 8.895-7.771 15.442-6.715 18.221.549 1.442.883 3.339.744 4.213-.402 2.519 5.184 11.846 7.543 12.594 3.173 1.007 8.859.521 11.161-.954 1.112-.713 3.922-1.617 6.245-2.01 2.322-.392 4.377-1.011 4.565-1.376.189-.365-.022-5.647-.468-11.74-.673-9.191-1.262-11.884-3.464-15.822-2.922-5.229-5.125-6.455-12.347-6.871-4.69-.271-4.915-.155-7.264 3.745M249 308c0 .55.45 1 1 1s1-.45 1-1-.45-1-1-1-1 .45-1 1m-44.842 118c0 1.375.227 1.938.504 1.25.278-.687.278-1.812 0-2.5-.277-.687-.504-.125-.504 1.25m578.3 40.068c-.363.588-1.307.82-2.097.517-.79-.303-1.693.116-2.006.932-.313.816-1.083 1.481-1.712 1.479-1.389-.004-8.605 8.052-8.627 9.632-.009.62-.691 1.687-1.516 2.372-1.617 1.342-2.068 7.531-.615 8.429.486.3 1.187 2.563 1.556 5.027.466 3.106 1.576 5.334 3.616 7.259 1.618 1.528 2.943 3.342 2.943 4.032 0 .689.675 1.253 1.5 1.253s1.5.436 1.5.969c0 .532.675.709 1.5.393.825-.317 1.5-.078 1.5.531s1.098 1.107 2.441 1.107c1.343 0 2.719.45 3.059 1 .897 1.451 5.5 1.229 5.5-.265 0-.695.869-2.885 1.93-4.866 1.79-3.339 3.551-10.157 4.489-17.369.537-4.137-1.338-15.536-2.987-18.158-2.469-3.925-10.433-6.768-11.974-4.274m-27.128 93.698a5178.65 5178.65 0 01-5.869 12.734c-2.035 4.4-3.865 9.261-4.067 10.802-.202 1.54-1.682 5.815-3.29 9.5-1.608 3.684-3.818 9.398-4.913 12.698-1.094 3.3-2.285 6.729-2.647 7.621-.824 2.026 2.432 3.532 3.595 1.663.44-.706 1.812-1.284 3.049-1.284 2.198 0 6.778-6.127 11.391-15.241.906-1.79 2.115-2.948 2.701-2.586.64.396.831.058.481-.854-.325-.846.22-2.084 1.239-2.819 1-.721 1.574-1.946 1.276-2.723-.298-.776.055-2.526.783-3.888 1.134-2.118 1.06-3.257-.511-7.879-1.444-4.248-1.722-7.232-1.303-13.957.294-4.704.471-8.546.394-8.537-.076.008-1.115 2.146-2.309 4.75m-369.965 8.453c-.266.429-13.506.781-29.424.781H327v5.849c0 3.217.292 9.306.649 13.532l.65 7.682 4.1-.223c2.629-.143 4.574-.878 5.419-2.048.726-1.004 1.7-1.59 2.165-1.302.465.287.997.182 1.182-.234.184-.416 3.935-2.556 8.335-4.756s8.494-4.631 9.098-5.403c.604-.771 1.617-1.082 2.25-.691.688.425 1.152.06 1.152-.906 0-.89.453-1.338 1.007-.996.554.343 1.266-.052 1.583-.877.316-.826 1.213-1.256 1.993-.957.779.299 1.417-.012 1.417-.691 0-.88 1.148-1.051 4-.595 3.185.509 4 .332 4-.872 0-.832.81-1.512 1.8-1.512s2.34-.54 3-1.2c.66-.66 1.2-.852 1.2-.427 0 .424 1.186-.161 2.635-1.3 1.449-1.14 3.249-2.073 4-2.073.751 0 1.365-.422 1.365-.938 0-1.109-3.935-.976-4.635.157m335.158.152c-2.923 1.669-4.455 3.846-4.491 6.379-.018 1.237-.41 2.25-.871 2.25-1.787 0-3.419 5.86-3.899 14-.448 7.578-.276 8.771 1.585 11l2.086 2.5.034-2.615c.018-1.438.933-3.759 2.033-5.158 1.1-1.398 2-2.872 2-3.275 0-.669 2.974-7.461 5.119-11.688.485-.955.881-2.616.881-3.691 0-1.075.45-2.233 1-2.573.55-.34 1-1.491 1-2.559s.45-1.941 1-1.941 1-.811 1-1.802c0-2.138-5.281-2.653-8.477-.827m-422.64 1.431c-3.56.298-3.627.384-4.241 5.5-.344 2.859-.629 7.104-.633 9.434-.005 2.329-.559 6.291-1.231 8.804-1.031 3.855-.994 4.709.241 5.471.933.578 2.188.438 3.471-.387 1.106-.71 3.36-1.129 5.01-.93l3 .362-.198-10.81c-.108-5.945-.424-11.47-.701-12.278-.276-.807-.637-2.368-.802-3.468-.246-1.645-.941-1.946-3.916-1.698m-41.874 1.005c-1.92.196-3.777.818-4.126 1.383-.527.852-.218 26.716.43 35.977.244 3.477 1.451 4.621 2.351 2.226 1.026-2.729 3.591-4.426 4.966-3.285.75.622 1.331.435 1.709-.549.724-1.886-.446-35.553-1.246-35.871-.326-.13-2.164-.076-4.084.119m-2.934 48.776c.041 3.254.498 12.442 1.016 20.417.519 7.975 1.085 16.975 1.258 20 1.762 30.648 2.989 45.664 3.801 46.5.631.65.902-.75.774-4-.109-2.75.318-13.325.948-23.5 1.486-23.987 1.833-41.005.836-41.002-2.31.006-4.979-4.241-5.454-8.68-.284-2.65-.896-5.301-1.361-5.892-.465-.59-.783-2.73-.707-4.754.076-2.025-.16-3.979-.524-4.343-.364-.364-.628 2-.587 5.254m414.24 8.396c-1.548 2.188-3.265 4.009-3.815 4.046-.55.038-2.672 3.481-4.715 7.653-3.023 6.173-3.513 7.961-2.633 9.605.909 1.699.818 1.92-.568 1.388-1.179-.453-1.94.144-2.674 2.098-.957 2.544-3.659 8.493-7.956 17.511-.991 2.078-2.1 6.803-2.465 10.5-.812 8.213-2.379 13.05-4.439 13.704-2.455.779-4.368 6.199-3.651 10.344.349 2.019.83 6.372 1.069 9.672.239 3.3 1.065 11.537 1.834 18.304 1.555 13.667 1.313 16.795-1.433 18.51-1.028.642-1.869 2.119-1.869 3.283 0 1.163-1.619 4.236-3.599 6.828-2.219 2.908-3.411 5.428-3.11 6.58.268 1.026-.071 2.08-.754 2.343-1.948.747-7.218 11.673-8.032 16.652-.404 2.475-1.564 6.231-2.576 8.346-1.043 2.179-2.136 7.489-2.522 12.252-.595 7.325-.417 8.953 1.382 12.654 1.136 2.337 2.561 6.143 3.166 8.458.606 2.316 2.664 6.258 4.573 8.759 1.91 2.502 3.472 4.894 3.472 5.317 0 1.039 3.776 4.214 5.011 4.214.544 0 .989.401.989.892 0 .739 3.593 2.212 6.167 2.526.366.045 1.004.419 1.416.832.413.413 2.298.75 4.191.75 2.726 0 3.314.328 2.833 1.582-.334.87-.607 2.431-.607 3.468 0 1.188-.508 1.692-1.371 1.361-1.602-.615-6.629 7.335-6.629 10.483 0 1.121.63 3.516 1.399 5.322a823.98 823.98 0 013.13 7.484c.951 2.311 2.511 5.039 3.465 6.063 4.256 4.568 5.226 8.856 1.756 7.759-1.237-.391-4.275-1.073-6.75-1.514-2.475-.442-5.4-1.031-6.5-1.308-1.1-.278-5.15-1.277-9-2.221-3.85-.945-7.781-2.113-8.736-2.598-.955-.485-3.587-.881-5.849-.881s-5.756-.761-7.764-1.692c-3.876-1.796-10.427-6.304-10.984-7.558-.184-.413-.97-.75-1.747-.75-.778 0-3.199-1.612-5.379-3.582-2.181-1.971-4.399-3.315-4.928-2.988-1.151.711-6.113-1.392-6.113-2.591 0-.461-.64-.839-1.423-.839s-2.761-1.125-4.395-2.5c-3.097-2.606-5.182-3.21-5.182-1.5 0 .55-.675 1-1.5 1s-1.5.612-1.5 1.359c0 .748-1.583 3.335-3.517 5.75-3.089 3.857-3.511 5.06-3.466 9.891.028 3.025-.232 6.69-.579 8.145-.785 3.293 2.021 9.549 4.658 10.386 1.047.332 1.904 1.023 1.904 1.536 0 .513.675.933 1.5.933s1.5.45 1.5 1 .675 1 1.5 1 1.5.45 1.5 1 .62 1 1.378 1c.757 0 1.937.675 2.622 1.5.685.825 2.315 1.5 3.622 1.5 1.308 0 2.378.414 2.378.921 0 .506 1.35 1.217 3 1.579 1.65.362 3 1.073 3 1.579 0 .507.675.921 1.5.921s1.5.398 1.5.883c0 .781 2.619 2.023 5.5 2.607 1.304.265 4.232 1.385 8.151 3.117 1.733.766 3.871 1.393 4.75 1.393.88 0 1.599.45 1.599 1s1.098 1 2.441 1c1.343 0 2.731.469 3.085 1.042.354.573 2.518.966 4.809.874 2.291-.093 6.19.525 8.665 1.373 2.475.848 5.364 1.692 6.419 1.876 1.391.243.546 1.023-3.07 2.835-4.599 2.304-5.079 2.891-6.134 7.5-.977 4.271-.857 6.017.821 11.978 2.344 8.329 2.489 11.522.523 11.522-.793 0-1.72-.451-2.061-1.003-1.004-1.624-4.253.675-7.158 5.066-1.448 2.188-2.86 3.751-3.137 3.473-.278-.278-1.076.276-1.774 1.23-.697.953-1.678 1.734-2.18 1.734-.501 0-2.503 1.688-4.448 3.75-1.946 2.063-4.008 3.75-4.583 3.75-.576 0-2.647 1.462-4.604 3.25-1.956 1.788-4.807 4.303-6.336 5.59l-2.778 2.341-.837-6.091c-.461-3.349-1.248-6.09-1.75-6.09s-.913-1.154-.913-2.565c0-1.807 1.625-4.114 5.5-7.808 3.025-2.883 5.5-5.631 5.5-6.106 0-.475.733-1.673 1.628-2.663 1.505-1.663 1.498-2.074-.104-5.449-.953-2.008-2.506-3.853-3.451-4.1-1.059-.277-2.074-2.053-2.646-4.629-.89-4.011-1.068-4.168-4.407-3.895-1.914.157-3.849.944-4.3 1.75-1.187 2.122-3.254 1.799-4.964-.776-1.322-1.99-1.754-2.098-3.875-.963-4.361 2.334-7.68 10.974-4.881 12.704 1.48.915 1.215 2.796-.312 2.211-.721-.277-2.409.34-3.75 1.37-1.341 1.031-3.247 1.885-4.236 1.897-3.679.045-9.109 8.61-8.374 13.207.478 2.982 7.116 11.811 8.882 11.813 1.225.001 2.253 1.772 3.627 6.252 3.185 10.377 3.465 12.417 1.706 12.417-.849 0-1.543-.375-1.543-.834 0-.458-.9-.833-2-.833s-2-.45-2-1-1.098-1-2.441-1c-1.343 0-2.724-.457-3.069-1.016-.346-.559-1.097-.727-1.671-.372-.573.354-1.355.139-1.737-.479-.382-.618-2.019-1.215-3.638-1.326-1.619-.112-3.978-.855-5.241-1.651-1.912-1.205-2.178-1.969-1.586-4.552.913-3.978.622-8.289-.73-10.814-.821-1.535-1.841-1.897-4.475-1.59-1.877.219-3.412.039-3.412-.401 0-.439-.9-.799-2-.799s-2 .45-2 1-.645 1-1.433 1-1.748 1.013-2.133 2.25-1.766 4.472-3.067 7.187c-1.302 2.716-2.367 5.542-2.367 6.282 0 .739-.675 1.603-1.5 1.919-.927.356-1.5 1.877-1.5 3.983 0 1.873-.432 4.188-.96 5.143-.527.955-1.399 3.761-1.936 6.236-.538 2.475-1.445 6.3-2.017 8.5-2.519 9.696.031 18.5 5.359 18.5 1.27 0 2.869.675 3.554 1.5.685.825 2.714 1.5 4.509 1.5 2.809 0 3.494-.522 4.925-3.75.913-2.062 2.031-4.425 2.484-5.25.855-1.56 4.096-1.572 7.582-.029 1.628.72 7.616 2.097 10.667 2.451.366.043 1.004.416 1.416.828.413.412 1.618.75 2.679.75 1.061 0 3.207.91 4.768 2.022 1.562 1.112 3.207 1.917 3.655 1.79.448-.127 2.39.49 4.315 1.371 5.034 2.305 7.395 3.157 8.25 2.976.413-.088.75.291.75.841s.585 1 1.301 1c.715 0 2.512.563 3.992 1.25 2.095.973 2.601 1.805 2.282 3.75-.226 1.375-.448 2.823-.493 3.219-.045.395-.704.48-1.464.188s-2.589.588-4.064 1.956c-2.068 1.916-2.812 3.741-3.248 7.961-.55 5.329-.42 5.696 4.914 13.825 5.475 8.346 7.78 12.266 7.78 13.233 0 .283-1.237.093-2.75-.421s-5.088-1.066-7.947-1.227c-2.858-.162-5.52-.618-5.916-1.014-.396-.396-3.994-.72-7.995-.72-4.001 0-7.552-.45-7.892-1-.34-.55-1.478-1-2.528-1-1.051 0-3.709-.938-5.908-2.084-2.198-1.146-4.62-2.175-5.38-2.286-.761-.112-2.56-.974-3.999-1.917-1.438-.942-2.885-1.713-3.217-1.713-.652 0-7.651-5.075-8.468-6.141-.275-.359-2.436-1.172-4.801-1.808-2.366-.636-4.552-1.807-4.857-2.603-.306-.797-1.021-1.448-1.588-1.448-.568 0-3.288-1.387-6.044-3.083-4-2.461-5.686-2.957-8.36-2.455-2.401.451-3.35 1.166-3.35 2.524 0 1.043-.45 2.174-1 2.514-.55.34-1 1.491-1 2.559 0 1.215-.685 1.941-1.831 1.941-2.589 0-4.524 4.108-3.701 7.856.388 1.763.141 4.583-.573 6.557-1.158 3.204-1.041 3.769 1.562 7.525 1.548 2.234 3.429 4.062 4.179 4.062.75 0 1.364.45 1.364 1s.482 1 1.071 1c.59 0 1.699.563 2.466 1.25 4.735 4.247 11.896 8.75 13.913 8.75.819 0 3.086.897 5.039 1.994 1.952 1.096 3.878 1.925 4.28 1.841.871-.182 4.521 1.278 5.231 2.092 1.162 1.332 5.121 3.073 6.986 3.073 1.108 0 2.014.498 2.014 1.107s-.661.853-1.468.544c-.807-.31-1.734-.133-2.059.393-.941 1.522-3.473 1.107-3.473-.569 0-2.286-4.923-3.854-7.601-2.421-2.384 1.276-4.889 5.639-4.497 7.832.169.942-.406 1.215-1.792.853-1.421-.372-2.223.043-2.643 1.364-.331 1.043-1.021 1.897-1.534 1.897-.513 0-.933.845-.933 1.878 0 1.032-.675 2.437-1.5 3.122s-1.5 1.687-1.5 2.227c0 .541-1.35 2.983-3 5.428s-3 4.836-3 5.314c0 1.369-3.418 7.018-4.25 7.025-.413.003-.75.586-.75 1.295 0 .708-.829 2.915-1.843 4.903-1.013 1.988-2.428 6.371-3.143 9.74-.715 3.37-1.685 6.365-2.157 6.656-.471.292-.857 1.602-.857 2.912 0 1.31-.456 2.664-1.013 3.008-.558.345-.827 2.622-.599 5.062.227 2.439-.005 4.694-.518 5.01-1.296.802.114 7.745 1.771 8.72.747.44 1.359 1.686 1.359 2.77 0 3.469 4.62 13.482 8.621 18.683 4.293 5.579 9.551 8.931 15.504 9.883 2.156.345 4.132.971 4.392 1.391.834 1.35 22.465 1.149 25.597-.238 1.587-.702 2.886-1.653 2.886-2.112 0-.459 2.025-2.86 4.5-5.335s4.5-4.914 4.5-5.421c0-.507.68-.921 1.511-.921 1.366 0 7.489-11.483 7.489-14.043 0-.547 1.191-3.272 2.647-6.056 4.496-8.598 6.714-19.03 6.784-31.901.056-10.308-1.796-23.309-4.133-29-.338-.825-.547-1.828-.464-2.228.083-.4-.953-2.705-2.303-5.123l-2.453-4.395 4.211.343c10.882.885 27.745 1.157 28.179.454.266-.43 1.636-.563 3.043-.294 2.517.481 6.489-1.968 6.489-4.002 0-.514 1.156-2.16 2.57-3.657 2-2.119 3.344-2.662 6.066-2.447 3.173.25 3.637-.06 5.01-3.345 1.207-2.89 1.294-4.485.433-7.906-.593-2.357-1.079-5.917-1.079-7.911 0-2.992-.787-4.38-4.5-7.937-2.475-2.372-4.5-4.793-4.5-5.381 0-.588-2.299-5.93-5.109-11.87-5.617-11.874-8.12-19.041-6.911-19.789.432-.266 1.921.409 3.31 1.502 1.389 1.092 3.242 1.986 4.118 1.986.875 0 1.592.45 1.592 1s.9 1 2 1 2 .48 2 1.067.836.802 1.859.478c2.947-.936 4.315 1.535 2.91 5.257-1.851 4.903 1.461 13.198 5.27 13.198.987 0 2.057.563 2.378 1.25.466 1 .7 1 1.166 0 .321-.687 1.334-1.254 2.25-1.258.917-.004 2.262-1.242 2.988-2.75 1.199-2.489 3.116-11.923 3.706-18.242.128-1.375.5-3.175.825-4 .326-.825 1.023-4.267 1.549-7.65.525-3.382 1.898-8.101 3.05-10.485 2.38-4.926 3.716-15.335 2.097-16.336-.577-.356-1.048-1.366-1.048-2.244 0-2.728-4.918-8.288-7.301-8.253-2.793.04-5.699 2.217-5.699 4.269 0 .87-.388 1.821-.863 2.114-.474.294-1.433 2.57-2.13 5.059-.697 2.489-1.578 4.526-1.959 4.526-1.263 0-10.46-3.142-16.798-5.739-5.907-2.42-7.99-4.261-4.823-4.261.786 0 2.257-1.013 3.27-2.25s3.408-3.11 5.322-4.161c1.915-1.051 5.151-3.586 7.192-5.632 2.041-2.046 4.822-4 6.18-4.34 1.358-.341 3.143-1.294 3.968-2.119.824-.824 1.925-1.498 2.447-1.498s1.567-.748 2.322-1.662c.754-.914 2.672-2.455 4.261-3.424l2.889-1.761 3.229 3.423c6.073 6.44 10.493 3.39 10.493-7.239 0-3.421.464-6.506 1.032-6.857.567-.35 1.955-2.602 3.084-5.004 1.828-3.889 1.912-4.783.762-8.171-.711-2.093-1.904-4.548-2.651-5.457-.748-.909-1.237-2.259-1.086-3 .506-2.494-1.266-7.248-3.212-8.61-1.061-.743-1.929-1.987-1.929-2.764 0-1.606-3.452-8.666-6.176-12.628-2.149-3.127-2.377-4.55-.477-2.973 1.807 1.499 26.967 1.684 27.462.201.196-.59.883-1.09 1.524-1.11 1.901-.059 6.168-4.243 7.513-7.366.943-2.19 1.532-2.62 2.402-1.75 1.966 1.966 4.914 1.279 7.894-1.839 3.213-3.363 3.775-8.212 1.326-11.45-.807-1.068-1.47-2.868-1.472-4-.005-2.885-3.656-8.559-5.506-8.559-.909 0-1.784-1.221-2.136-2.978-.327-1.637-1.216-3.492-1.975-4.122-.758-.63-1.379-2.266-1.379-3.636 0-2.475-3.144-9.187-5.85-12.488-1.929-2.354-8.071-17.522-7.376-18.217.308-.307 3.297-.593 6.643-.635l6.083-.076 7.434-8.306c4.089-4.568 7.825-9.362 8.303-10.653.478-1.291 1.442-3.032 2.143-3.868.701-.837 1.841-3.546 2.534-6.021.692-2.475 1.809-5.4 2.481-6.5.673-1.1 2.096-4.25 3.164-7 1.691-4.356 1.941-7.587 1.941-25.097 0-14.152-.355-20.525-1.199-21.541-.659-.794-1.69-3.635-2.29-6.314-1.338-5.971-6.909-15.548-9.045-15.548-.861 0-2.106-.54-2.766-1.2-.66-.66-1.2-.929-1.2-.598 0 .331-2.059-.018-4.577-.775-4.975-1.498-16.955-.986-19.187.819-.92.744-2.074.173-4.25-2.103-3.036-3.177-3.454-4.793-2.328-8.998.567-2.119 1.025-2.291 4.578-1.723 2.171.347 5.593 1.939 7.606 3.538 2.947 2.342 4.585 2.889 8.427 2.815 2.623-.051 5.773.388 7 .976 1.227.587 2.906 1.337 3.731 1.665.825.329 3.3 1.727 5.5 3.108 5.078 3.187 8.12 4.476 10.565 4.476 1.064 0 1.935.47 1.935 1.044 0 .574.788.911 1.75.75 1.273-.214 1.839.489 2.078 2.578.181 1.579-.157 3.357-.75 3.95-1.806 1.806-1.303 9.164.753 11.025 1.007.912 2.132 1.356 2.5.989.368-.368.669-.144.669.497 0 .642 1.087 1.167 2.417 1.167 1.329 0 2.587.511 2.795 1.136.463 1.39 4.588-.739 6.594-3.403.732-.971 1.75-1.507 2.262-1.191.513.317.932.099.932-.483s.832-1.059 1.848-1.059c1.808 0 4.218-4.253 5.666-10 1.204-4.774 9.763-28.505 10.622-29.45.475-.523.867-1.648.87-2.5.004-.853.679-2.839 1.5-4.414.86-1.649 1.494-5.515 1.494-9.112 0-4.964-.589-7.35-2.869-11.617-2.482-4.645-3.288-5.386-5.979-5.494-2.335-.094-3.529.524-4.789 2.481-.923 1.433-2.285 2.968-3.027 3.409-1.005.599-1.083 1.301-.307 2.75.822 1.536.717 1.947-.494 1.947-.844 0-1.535.689-1.535 1.532 0 .843-.658 3.107-1.462 5.032-1.344 3.215-1.649 3.403-3.75 2.312-4.801-2.493-5.555-2.657-9.98-2.158-2.8.316-4.812.084-5.237-.603-.379-.613-2.237-1.115-4.13-1.115-1.893 0-3.441-.357-3.441-.794 0-.436-2.69-1.39-5.977-2.119-3.287-.73-6.492-1.948-7.122-2.707-.63-.759-1.766-1.38-2.523-1.38-.758 0-1.378-.498-1.378-1.107s-.661-.853-1.468-.544c-.807.31-1.734.133-2.059-.393-.325-.526-1.464-.956-2.532-.956s-1.941-.34-1.941-.756-1.283-1.324-2.851-2.018c-2.809-1.243-2.853-1.392-3.014-10.258-.115-6.362.259-9.651 1.277-11.232.792-1.23 1.751-3.936 2.13-6.013.676-3.697 2.759-5.723 5.885-5.723.858 0 3.362-.781 5.566-1.736 3.577-1.549 4.01-2.113 4.031-5.25.013-1.933.445-5.314.961-7.514.6-2.56.577-5.35-.062-7.75-.902-3.383-1.326-3.75-4.333-3.75-2.686 0-3.793-.677-5.711-3.493-3.371-4.95-6.838-4.795-10.564.472M303 660c0 .55-.675 1-1.5 1s-1.5.34-1.5.756-1.412 1.381-3.138 2.145l-3.138 1.389.588 21.37c.324 11.754.949 21.926 1.388 22.605.44.679.82 1.91.845 2.735.194 6.467 1.807 24.71 2.652 30 .572 3.575 1.191 7.625 1.376 9 .505 3.738 3.479 24.128 3.939 27 .829 5.186 2.402 17.569 2.444 19.25.024.962.543 1.75 1.152 1.75.692 0 .866-.968.463-2.571-.959-3.825-1.674-26.256-2.593-81.429-.454-27.225-.859-50.962-.902-52.75-.042-1.788-.526-3.25-1.076-3.25s-1 .45-1 1m360 101c-.825.533-2.514.976-3.754.985-3.409.023-8.389 3.061-12.53 7.645-4.286 4.744-4.432 5.412-1.716 7.87 1.1.995 2 2.805 2 4.02 0 1.216-.9 3.354-2 4.753-3.183 4.047-2.824 15.4.709 22.377 2.02 3.989 3.26 5.35 4.877 5.35 1.193 0 2.729.675 3.414 1.5 1.618 1.95 15.871 2.167 16.423.25.198-.687 1.354-5.525 2.569-10.75 1.215-5.225 2.548-9.95 2.961-10.5 1.431-1.907 2.974-17.935 2.141-22.239-.957-4.94-4.947-11.255-6.689-10.586-.662.254-1.5-.019-1.863-.607-.82-1.326-4.535-1.365-6.542-.068m-427.286 4.692c-.396 2.306-1.164 13.106-1.707 24-.543 10.895-1.272 22.648-1.62 26.118-.348 3.471-.767 8.421-.931 11-.164 2.58-1.017 13.015-1.896 23.19-.878 10.175-1.738 20.75-1.91 23.5-.173 2.75-1.076 14.675-2.006 26.5-.931 11.825-1.721 22.625-1.756 24-.035 1.375-.505 7.225-1.045 13-.54 5.775-1.357 25.8-1.816 44.5-.816 33.257-1.512 50.817-2.502 63.117l-.492 6.117 7.234.718c3.978.394 10.833 1.017 15.233 1.383l8 .665.246-46.5c.279-52.836-.799-86.261-4.321-134-.913-12.375-1.863-26.325-2.112-31-1.722-32.361-3.633-59.781-5.121-73.5-.748-6.899-.77-6.939-1.478-2.808m38.933 219.027c-.344 2.08-.63 17.618-.636 34.531L274 1050h3.5c1.925 0 3.5-.45 3.5-1s.727-1 1.617-1c1.226 0 1.44-.543.886-2.25-.402-1.237-1.35-7.785-2.108-14.55-.758-6.765-1.837-13.157-2.397-14.204-.561-1.047-1.449-9.409-1.974-18.582-.524-9.172-1.134-16.857-1.353-17.076-.22-.22-.68 1.302-1.024 3.381M530.5 1143c-.34.55-1.731 1-3.09 1-1.36 0-2.732.675-3.048 1.5-.317.825-1.468 1.5-2.558 1.5-1.09 0-3.772 1.688-5.96 3.75-3.42 3.224-3.892 4.171-3.363 6.75 1.709 8.347 1.707 9.564-.02 12.199-1.989 3.036-2.897 9.913-1.429 10.82.532.33.968 2.162.968 4.072 0 4.5 2.107 9.37 5.191 11.997 1.852 1.577 4.403 2.238 10.426 2.703 4.386.338 8.716.9 9.623 1.248 1.158.444 1.658.086 1.681-1.203.078-4.446 2.122-15.683 3.058-16.811 1.125-1.356 2.601-7.547 4.134-17.344 1.216-7.766-.951-17.064-4.173-17.907-1.067-.279-1.944-1.017-1.948-1.641-.017-2.446-8.204-4.718-9.492-2.633M294 1157.889c0 .488-1.687 1.191-3.75 1.56-4.457.798-10.067 2.451-12.499 3.682-.963.487-3.663.83-6 .763-2.338-.067-5.376.323-6.751.868-1.375.544-4.975 1.321-8 1.725-11.851 1.586-7.941 2.453 11.191 2.483 10.83.016 19.925.408 20.211.871.286.463 2.467.87 4.847.906l4.328.066-.327-3.657c-.621-6.954-1.344-10.156-2.295-10.156-.525 0-.955.4-.955.889" fill="undefined" fill-rule="evenodd"/></svg>